<svg width="4753" height="254" fill="none" xmlns="http://www.w3.org/2000/svg"><path d="M4344.98 213h-58.53m350.66 0h-38.25m154.14 0h-88.76m-516.55-22.287-13.1 13.109m23.19-23.187-6.73 6.724m182.22 26.039-56.62-107.807a23.893 23.893 0 0 0-38.05-5.78l-73.21 73.205" stroke="#B1B6B9" stroke-width="2" stroke-linejoin="round"/><path d="m4313 175.018 79.67-90.674a27.531 27.531 0 0 1 17.06-9.104 27.62 27.62 0 0 1 18.87 4.342L4630 213M4454.43 96.007l50.75-58.24a25.03 25.03 0 0 1 8.84-6.483 25.003 25.003 0 0 1 10.75-2.088c3.7.106 7.32 1.03 10.62 2.705a25.024 25.024 0 0 1 8.44 6.98l135.03 174.262" stroke="#B1B6B9" stroke-width="2" stroke-linejoin="round"/><path d="M4272.32 100.092s26.02-41.003 55.75-87.777c7.45-11.705 23.55-13.875 32.04-4.308l35.17 39.6 27.46-2.69a39.26 39.26 0 0 1 15.39 1.373 39.267 39.267 0 0 1 13.66 7.207l23.52 19.578" stroke="#B1B6B9" stroke-width="2" stroke-linejoin="round"/><path d="M4222.52 125.033c1.95.01 3.88-.277 5.75-.851a30.495 30.495 0 0 0 21.83 23.898 30.51 30.51 0 0 0 16.83-.125 30.492 30.492 0 0 0 14.21-9.03 13.33 13.33 0 0 0 11.92-2.085l-16.41-31.257a23.893 23.893 0 0 0-38.05-5.78l-23.66 23.664a19.14 19.14 0 0 0 7.58 1.566Zm92.91-92.417c1.75.949 3.8 1.2 5.73.705a7.898 7.898 0 0 0 4.69-3.378 35.246 35.246 0 0 0 40.01 1.873 12.055 12.055 0 0 0 3.56 3.695c1.45.961 3.08 1.602 4.78 1.88a12.13 12.13 0 0 0 9.69-2.655m-.03 60.104a26.264 26.264 0 0 0 21.97 18.605 26.28 26.28 0 0 0 14.82-2.503 26.289 26.289 0 0 0 11.01-10.211 14.27 14.27 0 0 0 10.28-.565 14.3 14.3 0 0 0 7.23-7.334m36.99-33.139a11.309 11.309 0 0 0 4.57 4.566 11.286 11.286 0 0 0 6.31 1.327c2.2-.18 4.29-.995 6.02-2.344a11.323 11.323 0 0 0 3.76-5.251 31.145 31.145 0 0 0 16.27 3.683 31.2 31.2 0 0 0 15.85-5.24 15.238 15.238 0 0 0 4.26 4.887 15.28 15.28 0 0 0 5.92 2.67 15.225 15.225 0 0 0 12.37-2.765" stroke="#B1B6B9" stroke-width="2" stroke-linejoin="round"/><path fill-rule="evenodd" clip-rule="evenodd" d="M3906.69 6.455c.14.06.27.153.37.277.04.044.07.09.1.138l26.31 43.685c.21.353.18.802-.07 1.128a.992.992 0 0 1-1.07.346l-12.51-3.727 25.77 42.427c.22.371.18.845-.1 1.174-.29.328-.75.435-1.15.265l-12.18-5.182 23.95 40.431c.22.369.18.835-.1 1.16a.995.995 0 0 1-1.13.279L3920 114.962l9.01 15.004c.24.397.17.905-.16 1.229a.998.998 0 0 1-1.23.133l-14.74-9.245V212h65.52v-40.623l-37.39 7.226c-.44.086-.89-.133-1.09-.535a.993.993 0 0 1 .23-1.189l29.92-26.994-9.94 1.788c-.43.077-.85-.128-1.06-.508-.2-.379-.14-.848.15-1.162l17.9-18.978-21.36 6.196a.997.997 0 0 1-1.14-.455 1.01 1.01 0 0 1 .16-1.218l22.7-22.339-12.25 4.747a.993.993 0 0 1-1.12-.287c-.28-.325-.31-.79-.1-1.156l20.27-34.125c.05-.086.11-.166.18-.236.08-.073.17-.133.26-.177.14-.064.29-.094.43-.094s.29.03.42.094c.1.044.19.104.26.178.08.07.14.15.19.235l20.26 34.125c.21.366.17.831-.1 1.156-.28.326-.73.441-1.13.287l-12.24-4.747 22.7 22.339c.32.321.39.823.16 1.218a.997.997 0 0 1-1.14.455l-21.35-6.196 17.88 18.978c.3.314.36.783.16 1.162-.21.38-.64.585-1.06.508l-9.94-1.788 29.92 26.994c.33.301.43.787.23 1.189-.2.402-.65.621-1.09.535l-37.39-7.226V212h62.72v-62.93l-21.65 6.913c-.45.142-.93-.043-1.17-.444a1.01 1.01 0 0 1 .18-1.235l20.81-19.687-35.51 8.947a1 1 0 0 1-1.01-1.612l30.59-36.589-10.46 2.487c-.4.096-.82-.069-1.06-.414-.23-.346-.22-.799.02-1.139l18.49-26-21.79 8.378a1 1 0 0 1-1.16-.335 1 1 0 0 1 .01-1.207l22.27-29.062-7.19 4.982c-.36.246-.84.235-1.18-.028a1.015 1.015 0 0 1-.34-1.127l15.94-45.267.06-.143c.04-.072.08-.137.13-.197.11-.127.26-.229.43-.289l.01-.004a.993.993 0 0 1 .64 0l.01.004a.998.998 0 0 1 .62.628l15.94 45.268c.15.409.01.864-.33 1.127-.35.263-.82.274-1.18.028l-7.2-4.983 22.28 29.063c.27.355.27.849.01 1.207-.27.359-.75.495-1.16.335l-21.79-8.377 18.49 25.999c.24.34.25.793.02 1.139-.24.345-.66.51-1.07.414l-10.45-2.487 30.59 36.589a.999.999 0 0 1-1.01 1.612l-35.51-8.947 20.81 19.687c.34.32.41.833.17 1.235a.992.992 0 0 1-1.16.444l-21.65-6.913V212h53.49v-26.394l-19.41 8.877c-.44.2-.96.06-1.23-.334a.993.993 0 0 1 .1-1.275l13.6-13.893-31.03 6.396a.99.99 0 0 1-1.03-.427.995.995 0 0 1 .01-1.12l35.41-51.446-8.08 3.533a1.002 1.002 0 0 1-1.27-1.409l8.87-15.661-17.05 9.269a.997.997 0 0 1-1.37-1.321l28.58-57.874a1.008 1.008 0 0 1 .9-.558c.37 0 .72.205.89.558l28.58 57.874c.19.391.11.862-.2 1.164a1 1 0 0 1-1.17.157l-17.05-9.269 8.87 15.661a1.002 1.002 0 0 1-1.27 1.409l-8.09-3.533 35.42 51.446c.23.337.23.78.01 1.12-.23.34-.64.509-1.04.427l-31.02-6.396 13.6 13.893c.33.345.38.88.1 1.275a.999.999 0 0 1-1.23.334l-19.41-8.877V212h47.75c.55 0 1 .448 1 1s-.45 1-1 1h-48.75c-.55 0-1-.448-1-1v-28.952c0-.34.17-.657.46-.841.29-.184.65-.21.96-.068l15.92 7.285-12.12-12.384c-.3-.314-.37-.793-.16-1.179.21-.385.65-.588 1.08-.5l31.79 6.555-35.99-52.285c-.25-.368-.23-.859.05-1.204a1 1 0 0 1 1.17-.279l8.55 3.735-9.11-16.091a.989.989 0 0 1 .16-1.193.996.996 0 0 1 1.19-.178l17.34 9.432-26.28-53.231-26.29 53.23 17.34-9.431a.998.998 0 0 1 1.19.178c.31.318.38.805.16 1.193l-9.11 16.091 8.54-3.735c.41-.179.89-.065 1.18.279.28.345.3.836.05 1.204l-35.99 52.285 31.79-6.555c.43-.088.87.115 1.08.5a1 1 0 0 1-.17 1.179l-12.11 12.384 15.92-7.285c.31-.142.67-.116.96.068.28.184.46.501.46.841V213c0 .552-.45 1-1 1h-55.11a.995.995 0 0 1-1.38-.925v-65.374c0-.319.15-.619.41-.807a.988.988 0 0 1 .89-.145l18.78 5.995-20.41-19.306a1 1 0 0 1 .93-1.696l36.24 9.129-30.55-36.536a.99.99 0 0 1-.08-1.168.995.995 0 0 1 1.08-.447l10.8 2.569-18.87-26.536a.994.994 0 0 1 .02-1.192.999.999 0 0 1 1.15-.32l21.57 8.294-23.99-31.302a.999.999 0 0 1 1.36-1.43l9.9 6.85-13.98-39.697-13.98 39.697 9.9-6.85c.41-.281.96-.225 1.3.132.34.356.37.907.07 1.298l-24 31.302 21.58-8.295a.988.988 0 0 1 1.14.32.98.98 0 0 1 .03 1.193l-18.87 26.536 10.8-2.569a.995.995 0 0 1 1.08.447.99.99 0 0 1-.08 1.168l-30.55 36.536 36.24-9.129a.999.999 0 0 1 .93 1.696l-20.41 19.306 18.78-5.995c.3-.097.63-.044.89.145.26.188.41.488.41.807v65.374a.995.995 0 0 1-1.38.925h-63.63a.995.995 0 0 1-1.71-.695v-43.05c-.01-.092 0-.185.01-.28.11-.542.63-.897 1.18-.792l35.05 6.775-29.85-26.935a.984.984 0 0 1-.23-1.183.996.996 0 0 1 1.07-.544l10.41 1.872-18.33-19.44c-.3-.328-.36-.822-.12-1.207a.996.996 0 0 1 1.13-.439l21.07 6.115-23.33-22.956a1.005 1.005 0 0 1-.13-1.255.992.992 0 0 1 1.2-.39l14.06 5.449-17.93-30.205-17.94 30.205 14.06-5.449a.996.996 0 0 1 1.2.39c.26.398.2.923-.14 1.255l-23.32 22.957 21.08-6.116a1 1 0 0 1 1.13.439c.23.385.18.879-.13 1.208l-18.33 19.439 10.4-1.872a.998.998 0 0 1 .85 1.727l-29.86 26.935 35.06-6.775a.992.992 0 0 1 1.17.792c.02.095.03.19.02.281v43.049c0 .552-.45 1-1 1-.28 0-.53-.117-.72-.305h-66c-.19.237-.47.39-.8.39-.55 0-1-.448-1-1v-93.115a1.007 1.007 0 0 1 1.54-.847l12.72 7.985-8.38-13.961a1 1 0 0 1 .1-1.163.997.997 0 0 1 1.13-.281l34.91 13.904-24.02-40.53c-.22-.372-.17-.843.11-1.168a.995.995 0 0 1 1.14-.262l12.14 5.16-25.5-41.991a.995.995 0 0 1 .06-1.13 1 1 0 0 1 1.08-.348l12.51 3.731-24.12-40.058-24.11 40.058 12.5-3.73a1 1 0 0 1 1.08.346c.25.328.28.777.06 1.13l-25.49 41.992 12.13-5.16c.4-.169.86-.064 1.15.262.28.325.33.796.11 1.168l-24.02 40.53 34.9-13.904a.997.997 0 0 1 1.13.281c.28.327.32.795.1 1.162l-8.38 13.964 12.73-7.987c.31-.194.7-.204 1.02-.028a.99.99 0 0 1 .51.875v93.115c0 .552-.44 1-1 1a.994.994 0 0 1-.79-.39h-65.53c-.56 0-1-.448-1-1 0-.06 0-.119.01-.177-.01-.057-.01-.116-.01-.176v-41.438a1.002 1.002 0 0 1 1.39-.92l36.24 15.437-23.16-42.082c-.19-.348-.16-.775.08-1.09.25-.315.65-.458 1.03-.364l17.87 4.331-38.03-41.57-38.02 41.57 17.85-4.331a.995.995 0 0 1 1.03.364c.24.315.27.742.08 1.09l-23.16 42.082 36.25-15.437a.998.998 0 0 1 1.39.92v41.438c0 .129-.03.251-.07.364-.01.547-.45.989-1 .989h-76.57a1.002 1.002 0 0 1-1.38-.925v-41.139a.996.996 0 0 1 1.3-.953l18.78 6.003-20.41-19.314c-.33-.313-.4-.809-.19-1.208.22-.399.68-.599 1.13-.488l36.23 9.138-30.55-36.545a1.005 1.005 0 0 1-.08-1.168.999.999 0 0 1 1.08-.446l10.8 2.575-18.86-26.534a1.01 1.01 0 0 1 .03-1.193.989.989 0 0 1 1.14-.32l21.87 8.411-27.01-39.326-27.01 39.326 21.87-8.411c.41-.158.88-.028 1.15.321.27.348.28.833.02 1.192l-18.87 26.534 10.81-2.575c.42-.1.86.08 1.08.446a.99.99 0 0 1-.08 1.168l-30.55 36.544 36.23-9.137a1 1 0 0 1 .93 1.696l-20.41 19.314 18.78-6.003c.31-.097.64-.043.9.145.25.188.41.488.41.808v41.139a1.002 1.002 0 0 1-1.38.925h-77.65c-.56 0-1-.448-1-1s.44-1 1-1h77.03v-38.695l-21.66 6.921a.996.996 0 0 1-1.16-.444.994.994 0 0 1 .17-1.235l20.82-19.695-35.51 8.955c-.42.105-.87-.071-1.1-.438-.23-.367-.19-.841.08-1.174l30.6-36.596-10.46 2.493a.993.993 0 0 1-1.06-.413.99.99 0 0 1 .01-1.139l18.49-25.999-21.78 8.377c-.41.157-.88.03-1.15-.314a1.016 1.016 0 0 1-.04-1.186l29.65-43.16a.915.915 0 0 1 .4-.351.965.965 0 0 1 .44-.105 1.005 1.005 0 0 1 .68.264c.06.058.12.123.16.192l29.64 43.16c.25.361.24.842-.04 1.186a.993.993 0 0 1-1.14.314l-21.78-8.377 18.48 25.999c.25.34.25.794.02 1.139a1 1 0 0 1-1.06.413l-10.46-2.492 30.59 36.595a.999.999 0 0 1-1.01 1.612l-35.51-8.955 20.81 19.695c.34.321.42.833.18 1.235-.24.402-.72.586-1.17.444l-21.65-6.921V212h75.02v-39.278l-37.52 15.979a1.004 1.004 0 0 1-1.27-1.402l23.47-42.631-18.84 4.569c-.43.104-.87-.084-1.1-.462-.22-.379-.17-.86.13-1.184l40.81-44.62c.24-.259.58-.364.9-.312.32-.052.66.053.9.312l40.82 44.62c.29.324.34.805.12 1.184-.22.378-.67.566-1.1.462l-18.84-4.569 23.46 42.631c.21.373.15.836-.13 1.153a1.01 1.01 0 0 1-1.14.249l-37.51-15.979V212h64.32v-89.917l-14.73 9.245a.998.998 0 0 1-1.23-.133.999.999 0 0 1-.16-1.229l9-15.004-34.88 13.894c-.39.159-.85.046-1.13-.279a1.028 1.028 0 0 1-.1-1.16l23.96-40.43-12.18 5.181c-.4.17-.87.063-1.15-.265a1.015 1.015 0 0 1-.1-1.174l25.76-42.427-12.5 3.727a.992.992 0 0 1-1.07-.346.993.993 0 0 1-.07-1.128l26.3-43.685a.886.886 0 0 1 .1-.138.963.963 0 0 1 .76-.355c.13 0 .26.025.39.078Z" fill="#B1B6B9"/><path d="m3576.47 35.442-56.99 30.219-37.28 48.443 6.7 4.647 36.26-47.413 51.31-27.528m-80.26 65.876v103.729m80.26-177.973 56.98 30.219 37.28 48.443-6.69 4.647-36.26-47.413-51.31-27.528m80.26 65.876v103m-27.38-76.774h-105.77v77.503h105.77v-77.503Z" stroke="#B1B6B9" stroke-width="2" stroke-linecap="round" stroke-linejoin="round"/><path d="M3572.1 142.611h-40.17v65.263h40.17v-65.263Zm48.9 0h-40.45v65.263H3621v-65.263Zm-89.07 0 40.17 65.263" stroke="#B1B6B9" stroke-width="2" stroke-linecap="round" stroke-linejoin="round"/><path d="M3572.1 142.611c-.96.579-40.17 65.263-40.17 65.263m48.62-65.263 40.45 65.263m0-65.263-40.45 65.263m7.88-132.356h-23.92v35.581h23.92V75.518Zm-23.78 17.79h23.63m-108.71 80.577 4.73 7.141v32.389h11.91m-38.65-39.53 4.74 7.141v32.389h12.53v-32.389l4.74-7.141m-44.01 0 4.73 7.141v32.389h12.53v-32.389l4.74-7.141m-44.01 0 4.74 7.141v32.389h12.53v-32.389l4.74-7.141m-48.75 39.53v-32.389l4.74-7.141m0 0 4.73 7.141v32.389h12.53v-32.389l4.74-7.141" stroke="#B1B6B9" stroke-width="2" stroke-linecap="round" stroke-linejoin="round"/><path d="M3455 177.545V38.225a32.106 32.106 0 0 1 9.42-22.696 32.109 32.109 0 0 1 22.71-9.394v0c8.51 0 16.68 3.383 22.71 9.406a32.123 32.123 0 0 1 9.4 22.71v26.882m-122.4 120.388h11.74m9.84 0h11.74m11.43 0h10.16m11.11 0h10.47m11.43 0h10.15m-98.07 18.565h11.74m9.84 0h11.74m11.43 0h10.16m11.11 0h10.47m11.43 0h10.15m-39.48-155.365h63.6m-63.6 28.184h54.49m-54.49 28.192h33.22m-33.22 28.193h40.22m-40.22 28.184h40.79m-104.45 12.351v-135.6a32.143 32.143 0 0 1 9.42-22.693 32.14 32.14 0 0 1 22.71-9.397 32.115 32.115 0 0 1 20.31 7.214 32.106 32.106 0 0 1 11.18 18.433m-63.18 16.939h63.59m-63.59 28.184h63.59m-63.59 28.192h63.59m-63.59 28.193h63.59m-63.59 28.184h63.59" stroke="#B1B6B9" stroke-width="2" stroke-linecap="round" stroke-linejoin="round"/><path d="M3287.45 117.875h-45.19" stroke="#B1B6B9" stroke-width="2" stroke-linejoin="round"/><path d="m3245 116.875-7.11 30.975H3290l-4.92-30.609m23.32 51.567-16.76-15.85h-26.79l-14.57 15.305m39.72-20.404 1.64 5.098" stroke="#B1B6B9" stroke-width="2" stroke-linecap="round" stroke-linejoin="round"/><path d="M3278.98 212.722c15.34 0 27.78-12.44 27.78-27.784 0-15.345-12.44-27.784-27.78-27.784-15.35 0-27.79 12.439-27.79 27.784 0 15.344 12.44 27.784 27.79 27.784Z" stroke="#B1B6B9" stroke-width="2" stroke-linecap="round" stroke-linejoin="round"/><path d="M3278.98 197.97c7.19 0 13.03-5.835 13.03-13.032 0-7.198-5.84-13.032-13.03-13.032-7.2 0-13.04 5.834-13.04 13.032 0 7.197 5.84 13.032 13.04 13.032Zm-64.29-2.724c.07-.723.1-1.464.1-2.205a23.19 23.19 0 0 0-3.59-12.433 23.293 23.293 0 0 0-9.68-8.589 23.3 23.3 0 0 0-12.78-2.089c-4.37.525-8.5 2.279-11.91 5.057" stroke="#B1B6B9" stroke-width="2" stroke-linecap="round" stroke-linejoin="round"/><path d="M3191.51 212.722c10.87 0 19.68-8.811 19.68-19.68 0-10.87-8.81-19.681-19.68-19.681s-19.68 8.811-19.68 19.681c0 10.869 8.81 19.68 19.68 19.68Z" stroke="#B1B6B9" stroke-width="2" stroke-linecap="round" stroke-linejoin="round"/><path d="M3191.51 202.269c5.1 0 9.23-4.131 9.23-9.227a9.228 9.228 0 0 0-9.23-9.228c-5.09 0-9.22 4.132-9.22 9.228s4.13 9.227 9.22 9.227Zm59.32-16.148h-36.63m-30.43-15.492s0-22.77 7.28-22.77h46.82v37.53m.02-23.868h-52.85m13.67-14.028V134.92c0-.456.08-.91.25-1.333a3.429 3.429 0 0 1 1.88-1.881c.42-.172.87-.257 1.33-.25h4.01c.92 0 1.8.365 2.45 1.014a3.46 3.46 0 0 1 1.01 2.45v12.939" stroke="#B1B6B9" stroke-width="2" stroke-linecap="round" stroke-linejoin="round"/><path d="M3206.72 131.456v-18.77l-4-8.563-3.83 1.822 3.28 6.741v18.77m61.89-14.471v29.963m-31.55 19.288v15.62m-5.26-15.62v15.62m-5.26-15.62v15.62m-5.26-15.62v15.62" stroke="#B1B6B9" stroke-width="2" stroke-linecap="round" stroke-linejoin="round"/><path d="M2853.35 126.591v86.228m10.02-85.266v22.855l16.91-16.914a2.63 2.63 0 0 1 3.71 0c.25.244.44.534.58.853.13.319.2.661.2 1.007 0 .346-.07.688-.2 1.007-.14.32-.33.609-.58.853l-20.43 20.429v55.653m19.52-86.646h-53.38a31.16 31.16 0 0 1-22.05-9.104 31.266 31.266 0 0 1-6.76-10.107 31.1 31.1 0 0 1-2.38-11.926v-35.07a31.186 31.186 0 0 1 9.13-22.019 31.142 31.142 0 0 1 22.02-9.12h53.42c4.09 0 8.14.804 11.92 2.369a31.081 31.081 0 0 1 10.1 6.75 31.087 31.087 0 0 1 6.75 10.102 31.048 31.048 0 0 1 2.37 11.917v35.07a31.13 31.13 0 0 1-9.12 22.016 31.153 31.153 0 0 1-22.02 9.122Z" stroke="#B1B6B9" stroke-width="2" stroke-linejoin="round"/><path fill-rule="evenodd" clip-rule="evenodd" d="M2743.37 8.148a40.972 40.972 0 0 1 20.31 5.359 41.43 41.43 0 0 1 8.77 6.69v.001a40.946 40.946 0 0 1 8.92 13.34 40.897 40.897 0 0 1 3.12 15.744v47.464a41.12 41.12 0 0 1-12.04 29.075 41.121 41.121 0 0 1-29.08 12.044h-24.91a41.121 41.121 0 0 1-29.08-12.044 41.12 41.12 0 0 1-12.04-29.075v-47.48a41.12 41.12 0 0 1 12.04-29.076 41.12 41.12 0 0 1 29.08-12.043h24.91Zm0-2h-24.91a43.102 43.102 0 0 0-30.49 12.629 43.104 43.104 0 0 0-12.63 30.49v47.48a43.102 43.102 0 0 0 12.63 30.489 43.1 43.1 0 0 0 30.49 12.63h4.55v72.957h2v-72.957h11.9v72.795h2v-72.795h4.46c11.44 0 22.4-4.543 30.49-12.63a43.102 43.102 0 0 0 12.63-30.489V49.285a42.918 42.918 0 0 0-3.27-16.512 43.05 43.05 0 0 0-9.36-13.99 43.635 43.635 0 0 0-9.19-7.013v-.001a42.952 42.952 0 0 0-21.3-5.621Z" fill="#B1B6B9"/><path d="M3387 213H2157.66c-19.04.061-37.77 4.88-54.47 14.02M0 213.126h288.649m1901.641-67v66.728m-12.3-66.583V164.3l-10-9.993c-.3-.302-.66-.541-1.05-.704-.4-.163-.82-.247-1.24-.247-.43 0-.85.084-1.25.247a3.248 3.248 0 0 0-2 2.998c0 .426.08.848.25 1.241.16.394.4.751.7 1.053l14.47 14.47v39.616m19.49-67.757h-27.72a32.251 32.251 0 0 1-22.79-9.455 32.27 32.27 0 0 1-9.44-22.798V95.947c0-4.235.84-8.429 2.46-12.342a32.287 32.287 0 0 1 6.98-10.464c3-2.995 6.55-5.37 10.47-6.991a32.209 32.209 0 0 1 12.34-2.456h27.71a32.268 32.268 0 0 1 22.81 9.45 32.287 32.287 0 0 1 9.45 22.803v17.024c0 4.237-.84 8.432-2.46 12.346-1.63 3.913-4 7.469-7 10.464a32.26 32.26 0 0 1-22.81 9.443Z" stroke="#B1B6B9" stroke-width="2" stroke-linejoin="round"/><path fill-rule="evenodd" clip-rule="evenodd" d="M2261.29 119.299a.994.994 0 0 1 .71-.299h60.5c.16 0 .32.039.46.11a.995.995 0 0 1 1.16.183l27.3 27.294a1 1 0 0 1 0 1.414c-.39.391-1.03.391-1.42 0l-2.36-2.357v67.473a1.001 1.001 0 0 1-2 0v-69.085c0-.116.02-.228.06-.332l-22.74-22.741-21.81 22.175c.23.183.38.468.38.788v69.196c0 .552-.44 1-1 1-.55 0-1-.448-1-1v-68.342l-6.32 6.425a.994.994 0 0 1-.71.299h-52.84v61.617a1.001 1.001 0 0 1-2 0V151.5H2232c-.4 0-.77-.242-.92-.614a.978.978 0 0 1 .21-1.087l30-30.5Zm1.13 1.701-28.03 28.5h57.69l28.03-28.5h-57.69Zm65.91 30.062c0 .553-.45 1-1 1h-7.42c-.56 0-1-.447-1-1v-8.248c0-.552.44-1 1-1h7.42c.55 0 1 .448 1 1v8.248Zm-2-1v-6.248h-5.42v6.248h5.42ZM2284.99 213c0 .552-.44 1-1 1h-15.05c-.56 0-1-.448-1-1v-22.906c0-.553.44-1 1-1h15.05c.56 0 1 .447 1 1V213Zm-2-1v-20.906h-13.05V212h13.05Zm6.01-32c.55 0 1-.448 1-1v-15.058c0-.552-.45-1-1-1h-7.42c-.55 0-1 .448-1 1V179c0 .552.45 1 1 1h7.42Zm-1-15.058V178h-5.42v-13.058h5.42ZM2274 179c0 .552-.45 1-1 1h-7.42c-.55 0-1-.448-1-1v-15.058c0-.552.45-1 1-1h7.42c.55 0 1 .448 1 1V179Zm-2-1v-13.058h-5.42V178h5.42Zm-15 2c.55 0 1-.448 1-1v-15.058c0-.552-.45-1-1-1h-7.42c-.55 0-1 .448-1 1V179c0 .552.45 1 1 1h7.42Zm-1-15.058V178h-5.42v-13.058h5.42Zm2 40.058c0 .552-.45 1-1 1h-7.42c-.55 0-1-.448-1-1v-15.058c0-.552.45-1 1-1h7.42c.55 0 1 .448 1 1V205Zm-2-1v-13.058h-5.42V204h5.42Zm79.16-28c.55 0 1-.448 1-1v-15.058c0-.552-.45-1-1-1h-7.42c-.55 0-1 .448-1 1V175c0 .552.45 1 1 1h7.42Zm-1-15.058V174h-5.42v-13.058h5.42Zm1 41.058c.55 0 1-.448 1-1v-15.058c0-.552-.45-1-1-1h-7.42c-.55 0-1 .448-1 1V201c0 .552.45 1 1 1h7.42Zm-1-15.058V200h-5.42v-13.058h5.42ZM2320.25 175c0 .552-.45 1-1 1h-7.42c-.55 0-1-.448-1-1v-15.058c0-.552.45-1 1-1h7.42c.55 0 1 .448 1 1V175Zm-2-1v-13.058h-5.42V174h5.42Zm1 28c.55 0 1-.448 1-1v-15.058c0-.552-.45-1-1-1h-7.42c-.55 0-1 .448-1 1V201c0 .552.45 1 1 1h7.42Zm-1-15.058V200h-5.42v-13.058h5.42Zm85.58-124.435-11.13 22.646 10.58-4.148a.97.97 0 0 1 .55-.05 1 1 0 0 1 .56.05l10.58 4.148-11.14-22.647Zm-21.12 28.708 21.12-8.28 21.12 8.28v6.875l-20.56-8.062a1.005 1.005 0 0 0-.56-.05.97.97 0 0 0-.55.05l-20.57 8.062v-6.875Zm4.48 7.267 16.64-6.524 16.64 6.521a.913.913 0 0 0-.13.49v39.899l-15.96-6.145a.991.991 0 0 0-.55-.049.991.991 0 0 0-.55.049l-15.96 6.148V98.969c0-.177-.05-.343-.13-.487Zm38.4 2.005-3.25-1.274v40.308c0 .039 0 .077-.01.115l29.06 11.192c.38.149.64.52.64.933v8.572c0 .33-.16.638-.44.825a.988.988 0 0 1-.92.108l-2.78-1.07v52.921a1.001 1.001 0 0 1-2 0v-53.692l-6.56-2.529v56.222c0 .552-.45 1-1 1s-1-.448-1-1v-56.993l-33.5-12.908-33.49 12.908v56.993c0 .552-.45 1-1 1-.56 0-1-.448-1-1v-56.222l-6.57 2.533v53.688h-2v-52.918l-2.77 1.067c-.31.119-.66.078-.93-.108a1.002 1.002 0 0 1-.43-.825v-8.572c0-.413.25-.784.64-.933l29.05-11.189c-.01-.039-.01-.078-.01-.118V99.217l-3.24 1.27c-.31.121-.66.081-.93-.105a1.01 1.01 0 0 1-.44-.826v-9.023c0-.411.26-.78.64-.93l8.63-3.385c.02-.08.04-.16.08-.237l12.68-25.792c.21-.415.66-.626 1.09-.54a.995.995 0 0 1 1.09.54l12.68 25.792c.04.077.07.157.09.238l8.63 3.383a1 1 0 0 1 .63.931v9.023c0 .33-.16.64-.43.826-.28.186-.63.226-.93.105Zm-21.76 34.167-46.19 17.794v6.428l45.64-17.59a.99.99 0 0 1 .55-.048.99.99 0 0 1 .55.048l45.65 17.59v-6.428l-46.2-17.794Zm-1.72-32.237c.19-.255.49-.405.81-.405h1.1c.31 0 .6.139.79.378l4.62 5.823c.14.177.22.396.22.622v16.76c0 .552-.45 1-1 1h-10.05c-.55 0-1-.448-1-1v-16.76c0-.215.07-.424.2-.596l4.31-5.822Zm1.31 1.595-3.82 5.153v15.43h8.05v-15.412l-4.11-5.171h-.12Zm-22.54 79.249c-.32 0-.62.15-.8.405l-4.31 5.822a.987.987 0 0 0-.2.595v16.761c0 .552.45 1 1 1h10.04c.55 0 1-.448 1-1v-16.761c0-.226-.08-.445-.22-.622l-4.62-5.822a1.001 1.001 0 0 0-.78-.378h-1.11Zm-3.31 7.152 3.81-5.152h.12l4.11 5.171v15.412h-8.04v-15.431Zm28.13-14.051.83 1.043v.002c2.04 2.561 3.66 5.871 4.78 9.644 1.11 3.776 1.69 7.937 1.69 12.148V213c0 .552-.45 1-1 1h-17c-.55 0-1-.448-1-1v-14.392c0-4.064.54-8.083 1.59-11.753 1.04-3.668 2.57-6.915 4.48-9.481l.69-.933c.6-.809 1.44-1.403 2.45-1.44l.03.999.02-1c.99.012 1.84.577 2.44 1.362Zm-1.58 1.224c-.34-.448-.66-.574-.86-.585-.22.017-.54.157-.89.628v.004l-.7.936c-1.74 2.335-3.17 5.35-4.16 8.833-.99 3.481-1.51 7.314-1.51 11.207V212h15v-12.801c0-4.034-.55-8.003-1.61-11.582-1.06-3.581-2.58-6.646-4.42-8.965v-.001l-.84-1.049-.01-.016Zm19.24 5.675c-.31 0-.61.15-.8.404l-4.32 5.823c-.12.172-.19.381-.19.595v16.761c0 .552.45 1 1 1h10.04c.55 0 1-.448 1-1v-16.761a.996.996 0 0 0-.21-.622l-4.63-5.822a.987.987 0 0 0-.78-.378h-1.11Zm-3.31 7.152 3.82-5.152h.12l4.1 5.171v15.412h-8.04v-15.431Zm-38.97-31.468c.19-.254.49-.404.8-.404h1.11c.31 0 .59.14.78.378l4.63 5.814c.14.177.21.396.21.622v10.887c0 .553-.45 1-1 1h-10.04c-.55 0-1-.447-1-1v-10.887c0-.214.07-.423.2-.596l4.31-5.814Zm1.31 1.596-3.82 5.145v9.556h8.04v-9.538l-4.1-5.163h-.12Zm41.97-2c-.32 0-.61.151-.8.405l-4.31 5.814a.987.987 0 0 0-.2.595v10.887c0 .553.45 1 1 1h10.04c.55 0 1-.447 1-1v-10.887c0-.226-.08-.445-.22-.622l-4.62-5.814a1.004 1.004 0 0 0-.78-.378h-1.11Zm-3.31 7.144 3.81-5.144h.12l4.11 5.163v9.538h-8.04v-9.557Zm33.45-116.521c0-.553.45-1 1-1h107.98c.56 0 1 .447 1 1v163.953h-2V50.164h-75.03v162.553h-2V50.164h-28.95v162.953h-2V49.164Zm44.52 134.288c0-.552.44-1 1-1H2519c.55 0 1 .448 1 1v29.665c0 .553-.45 1-1 1h-18.98c-.56 0-1-.447-1-1v-29.665Zm2 1v27.665H2518v-27.665h-16.98ZM2514 157c-.55 0-1 .448-1 1v15.058c0 .552.45 1 1 1h7.42c.56 0 1-.448 1-1V158c0-.552-.44-1-1-1H2514Zm1 15.058V159h5.42v13.058H2515ZM2497.72 158c0-.552.45-1 1-1h7.43c.55 0 1 .448 1 1v15.058c0 .552-.45 1-1 1h-7.43c-.55 0-1-.448-1-1V158Zm2 1v13.058h5.43V159h-5.43Zm29.28-2c-.55 0-1 .448-1 1v15.058c0 .552.45 1 1 1h7.42c.55 0 1-.448 1-1V158c0-.552-.45-1-1-1H2529Zm1 15.058V159h5.42v13.058H2530ZM2527.83 184c0-.552.45-1 1-1h7.42c.55 0 1 .448 1 1v15.058c0 .552-.45 1-1 1h-7.42c-.55 0-1-.448-1-1V184Zm2 1v13.058h5.42V185h-5.42Zm14.17-28c-.55 0-1 .448-1 1v15.058c0 .552.45 1 1 1h7.42c.55 0 1-.448 1-1V158c0-.552-.45-1-1-1H2544Zm1 15.058V159h5.42v13.058H2545ZM2543.74 184c0-.552.45-1 1-1h7.42c.55 0 1 .448 1 1v15.058c0 .552-.45 1-1 1h-7.42c-.55 0-1-.448-1-1V184Zm2 1v13.058h5.42V185h-5.42Zm-78.76-27c-.55 0-1 .448-1 1v15.058c0 .552.45 1 1 1h7.42c.56 0 1-.448 1-1V159c0-.552-.44-1-1-1h-7.42Zm1 15.058V160h5.42v13.058h-5.42Zm-2 10.942c0-.552.45-1 1-1h7.42c.56 0 1 .448 1 1v15.058c0 .552-.44 1-1 1h-7.42c-.55 0-1-.448-1-1V184Zm2 1v13.058h5.42V185h-5.42Zm46.02-52c-.55 0-1 .448-1 1v15.058c0 .552.45 1 1 1h7.42c.56 0 1-.448 1-1V134c0-.552-.44-1-1-1H2514Zm1 15.058V135h5.42v13.058H2515ZM2497.72 135c0-.552.45-1 1-1h7.43c.55 0 1 .448 1 1v15.058c0 .552-.45 1-1 1h-7.43c-.55 0-1-.448-1-1V135Zm2 1v13.058h5.43V136h-5.43Zm29.11-3c-.55 0-1 .448-1 1v15.058c0 .552.45 1 1 1h7.42c.55 0 1-.448 1-1V134c0-.552-.45-1-1-1h-7.42Zm1 15.058V135h5.42v13.058h-5.42ZM2543.74 134c0-.552.45-1 1-1h7.42c.55 0 1 .448 1 1v15.058c0 .552-.45 1-1 1h-7.42c-.55 0-1-.448-1-1V134Zm2 1v13.058h5.42V135h-5.42Zm-78.76-1c-.55 0-1 .448-1 1v15.058c0 .552.45 1 1 1h7.42c.56 0 1-.448 1-1V135c0-.552-.44-1-1-1h-7.42Zm1 15.058V136h5.42v13.058h-5.42ZM2513 111c0-.552.45-1 1-1h7.42c.56 0 1 .448 1 1v15.058c0 .552-.44 1-1 1H2514c-.55 0-1-.448-1-1V111Zm2 1v13.058h5.42V112H2515Zm-16.28-2c-.55 0-1 .448-1 1v15.058c0 .552.45 1 1 1h7.43c.55 0 1-.448 1-1V111c0-.552-.45-1-1-1h-7.43Zm1 15.058V112h5.43v13.058h-5.43ZM2527.83 111c0-.552.45-1 1-1h7.42c.55 0 1 .448 1 1v15.058c0 .552-.45 1-1 1h-7.42c-.55 0-1-.448-1-1V111Zm2 1v13.058h5.42V112h-5.42Zm14.91-2c-.55 0-1 .448-1 1v15.058c0 .552.45 1 1 1h7.42c.55 0 1-.448 1-1V111c0-.552-.45-1-1-1h-7.42Zm1 15.058V112h5.42v13.058h-5.42ZM2465.98 111c0-.552.45-1 1-1h7.42c.56 0 1 .448 1 1v15.058c0 .552-.44 1-1 1h-7.42c-.55 0-1-.448-1-1V111Zm2 1v13.058h5.42V112h-5.42ZM2514 86c-.55 0-1 .448-1 1v15.058c0 .552.45 1 1 1h7.42c.56 0 1-.448 1-1V87c0-.552-.44-1-1-1H2514Zm1 15.058V88h5.42v13.058H2515ZM2497.72 87c0-.552.45-1 1-1h7.43c.55 0 1 .448 1 1v15.058c0 .552-.45 1-1 1h-7.43c-.55 0-1-.448-1-1V87Zm2 1v13.058h5.43V88h-5.43Zm29.11-2c-.55 0-1 .448-1 1v15.058c0 .552.45 1 1 1h7.42c.55 0 1-.448 1-1V87c0-.552-.45-1-1-1h-7.42Zm1 15.058V88h5.42v13.058h-5.42ZM2543.74 87c0-.552.45-1 1-1h7.42c.55 0 1 .448 1 1v15.058c0 .552-.45 1-1 1h-7.42c-.55 0-1-.448-1-1V87Zm2 1v13.058h5.42V88h-5.42Zm-78.76-2c-.55 0-1 .448-1 1v15.058c0 .552.45 1 1 1h7.42c.56 0 1-.448 1-1V87c0-.552-.44-1-1-1h-7.42Zm1 15.058V88h5.42v13.058h-5.42ZM2513 63c0-.552.45-1 1-1h7.42c.56 0 1 .448 1 1v15.058c0 .552-.44 1-1 1H2514c-.55 0-1-.448-1-1V63Zm2 1v13.058h5.42V64H2515Zm-16.28-2c-.55 0-1 .448-1 1v15.058c0 .552.45 1 1 1h7.43c.55 0 1-.448 1-1V63c0-.552-.45-1-1-1h-7.43Zm1 15.058V64h5.43v13.058h-5.43ZM2527.83 63c0-.552.45-1 1-1h7.42c.55 0 1 .448 1 1v15.058c0 .552-.45 1-1 1h-7.42c-.55 0-1-.448-1-1V63Zm2 1v13.058h5.42V64h-5.42Zm14.91-2c-.55 0-1 .448-1 1v15.058c0 .552.45 1 1 1h7.42c.55 0 1-.448 1-1V63c0-.552-.45-1-1-1h-7.42Zm1 15.058V64h5.42v13.058h-5.42ZM2465.98 63c0-.552.45-1 1-1h7.42c.56 0 1 .448 1 1v15.058c0 .552-.44 1-1 1h-7.42c-.55 0-1-.448-1-1V63Zm2 1v13.058h5.42V64h-5.42Zm102.67-40.202c0-.553.45-1 1-1h92.09c.55 0 1 .447 1 1v189.319h-2V24.797h-58.38v188.27h-2V24.797h-29.71v188.32h-2V23.797ZM2614 183c0-.552.45-1 1-1h22c.55 0 1 .448 1 1v30c0 .552-.45 1-1 1h-22c-.55 0-1-.448-1-1v-30Zm2 1v28h20v-28h-20Zm14-27c-.55 0-1 .448-1 1v15.058c0 .552.45 1 1 1h7.42c.55 0 1-.448 1-1V158c0-.552-.45-1-1-1H2630Zm1 15.058V159h5.42v13.058H2631ZM2614 158c0-.552.45-1 1-1h7.42c.55 0 1 .448 1 1v15.058c0 .552-.45 1-1 1H2615c-.55 0-1-.448-1-1V158Zm2 1v13.058h5.42V159H2616Zm29-2c-.55 0-1 .448-1 1v15.058c0 .552.45 1 1 1h7.42c.55 0 1-.448 1-1V158c0-.552-.45-1-1-1H2645Zm1 15.058V159h5.42v13.058H2646ZM2643.99 184c0-.552.45-1 1-1h7.42c.55 0 1 .448 1 1v15.058c0 .552-.45 1-1 1h-7.42c-.55 0-1-.448-1-1V184Zm2 1v13.058h5.42V185h-5.42ZM2583 157c-.55 0-1 .448-1 1v15.058c0 .552.45 1 1 1h7.42c.56 0 1-.448 1-1V158c0-.552-.44-1-1-1H2583Zm1 15.058V159h5.42v13.058H2584ZM2582 184c0-.552.45-1 1-1h7.42c.56 0 1 .448 1 1v15.058c0 .552-.44 1-1 1H2583c-.55 0-1-.448-1-1V184Zm2 1v13.058h5.42V185H2584Zm46-52c-.55 0-1 .448-1 1v15.058c0 .552.45 1 1 1h7.42c.55 0 1-.448 1-1V134c0-.552-.45-1-1-1H2630Zm1 15.058V135h5.42v13.058H2631ZM2613.88 134c0-.552.45-1 1-1h7.42c.55 0 1 .448 1 1v15.058c0 .552-.45 1-1 1h-7.42c-.55 0-1-.448-1-1V134Zm2 1v13.058h5.42V135h-5.42Zm29.12-2c-.55 0-1 .448-1 1v15.058c0 .552.45 1 1 1h7.42c.55 0 1-.448 1-1V134c0-.552-.45-1-1-1H2645Zm1 15.058V135h5.42v13.058H2646ZM2582 134c0-.552.45-1 1-1h7.42c.56 0 1 .448 1 1v15.058c0 .552-.44 1-1 1H2583c-.55 0-1-.448-1-1V134Zm2 1v13.058h5.42V135H2584Zm46-25c-.55 0-1 .448-1 1v15.058c0 .552.45 1 1 1h7.42c.55 0 1-.448 1-1V111c0-.552-.45-1-1-1H2630Zm1 15.058V112h5.42v13.058H2631ZM2613.88 111c0-.552.45-1 1-1h7.42c.55 0 1 .448 1 1v15.058c0 .552-.45 1-1 1h-7.42c-.55 0-1-.448-1-1V111Zm2 1v13.058h5.42V112h-5.42Zm29.12-2c-.55 0-1 .448-1 1v15.058c0 .552.45 1 1 1h7.42c.55 0 1-.448 1-1V111c0-.552-.45-1-1-1H2645Zm1 15.058V112h5.42v13.058H2646ZM2582 111c0-.552.45-1 1-1h7.42c.56 0 1 .448 1 1v15.058c0 .552-.44 1-1 1H2583c-.55 0-1-.448-1-1V111Zm2 1v13.058h5.42V112H2584Zm46-26c-.55 0-1 .448-1 1v15.058c0 .552.45 1 1 1h7.42c.55 0 1-.448 1-1V87c0-.552-.45-1-1-1H2630Zm1 15.058V88h5.42v13.058H2631ZM2613.88 87c0-.552.45-1 1-1h7.42c.55 0 1 .448 1 1v15.058c0 .552-.45 1-1 1h-7.42c-.55 0-1-.448-1-1V87Zm2 1v13.058h5.42V88h-5.42Zm29.11-2c-.55 0-1 .448-1 1v15.058c0 .552.45 1 1 1h7.42c.55 0 1-.448 1-1V87c0-.552-.45-1-1-1h-7.42Zm1 15.058V88h5.42v13.058h-5.42ZM2582 87c0-.552.45-1 1-1h7.42c.56 0 1 .448 1 1v15.058c0 .552-.44 1-1 1H2583c-.55 0-1-.448-1-1V87Zm2 1v13.058h5.42V88H2584Zm46-26c-.55 0-1 .448-1 1v15.058c0 .552.45 1 1 1h7.42c.55 0 1-.448 1-1V63c0-.552-.45-1-1-1H2630Zm1 15.058V64h5.42v13.058H2631ZM2613.88 63c0-.552.45-1 1-1h7.42c.55 0 1 .448 1 1v15.058c0 .552-.45 1-1 1h-7.42c-.55 0-1-.448-1-1V63Zm2 1v13.058h5.42V64h-5.42Zm29.11-2c-.55 0-1 .448-1 1v15.058c0 .552.45 1 1 1h7.42c.55 0 1-.448 1-1V63c0-.552-.45-1-1-1h-7.42Zm1 15.058V64h5.42v13.058h-5.42ZM2582 63c0-.552.45-1 1-1h7.42c.56 0 1 .448 1 1v15.058c0 .552-.44 1-1 1H2583c-.55 0-1-.448-1-1V63Zm2 1v13.058h5.42V64H2584Zm46-28c-.55 0-1 .448-1 1v15.058c0 .552.45 1 1 1h7.42c.55 0 1-.448 1-1V37c0-.552-.45-1-1-1H2630Zm1 15.058V38h5.42v13.058H2631ZM2613.88 37c0-.552.45-1 1-1h7.42c.55 0 1 .448 1 1v15.058c0 .552-.45 1-1 1h-7.42c-.55 0-1-.448-1-1V37Zm2 1v13.058h5.42V38h-5.42Zm29.11-2c-.55 0-1 .448-1 1v15.058c0 .552.45 1 1 1h7.42c.55 0 1-.448 1-1V37c0-.552-.45-1-1-1h-7.42Zm1 15.058V38h5.42v13.058h-5.42ZM2582 37c0-.552.45-1 1-1h7.42c.56 0 1 .448 1 1v15.058c0 .552-.44 1-1 1H2583c-.55 0-1-.448-1-1V37Zm2 1v13.058h5.42V38H2584ZM158.565 41.814a24.581 24.581 0 0 0-24.579 24.578v48.58a24.578 24.578 0 0 0 24.579 24.57h11.333l17.196 17.196v56.388h2v-56.802a.997.997 0 0 0-.293-.707l-16.075-16.075h2.798l12.008 12.007a.999.999 0 0 0 1.707-.707v-11.643a16.507 16.507 0 0 1 5.746.115v25.003a1.002 1.002 0 0 0 1.707.707l12.765-12.765.002-.002a1 1 0 0 1 1.405-.001 1 1 0 0 1-.002 1.405l-.001.001-15.447 15.438a1.003 1.003 0 0 0-.293.707v43.319h2v-42.904l15.157-15.148.003-.004a3.001 3.001 0 0 0 0-4.226l-.71.705.704-.71a2.998 2.998 0 0 0-4.226 0l-.003.003-11.061 11.061v-22.375c.22.009.44.014.66.014h16.224a15.411 15.411 0 0 0 15.411-15.411V94.423a15.412 15.412 0 0 0-15.411-15.411h-4.184v-12.62a24.577 24.577 0 0 0-24.57-24.578h-26.55Zm28.674 97.638c-.706.06-1.415.09-2.124.09h-6.762l8.886 8.886v-8.976Zm21.446-58.44h5.184a13.41 13.41 0 0 1 13.411 13.411v29.708a13.41 13.41 0 0 1-13.411 13.411h-16.225c-.878 0-1.754-.085-2.616-.254l-.018-.003a18.495 18.495 0 0 0-6.439-.002 23.243 23.243 0 0 1-3.456.259h-26.55a22.583 22.583 0 0 1-15.963-6.61 22.584 22.584 0 0 1-6.616-15.96v-48.58a22.577 22.577 0 0 1 22.579-22.578h26.55a22.58 22.58 0 0 1 22.57 22.578v13.62a1 1 0 0 0 1 1Z" fill="#B1B6B9"/><path d="M739.625 101.241v30.976m-6.12-30.907v24.183m-2.443-82.186h10.972a18.558 18.558 0 0 1 18.557 18.548v20.89a18.556 18.556 0 0 1-18.557 18.556h-10.972a18.543 18.543 0 0 1-13.144-5.423 18.573 18.573 0 0 1-5.447-13.134V61.855a18.558 18.558 0 0 1 18.591-18.548Zm406.368 68.983v21.97m-6.12-21.902v14.829m-2.44-72.831h10.97c3.22-.006 6.38.828 9.17 2.418a18.55 18.55 0 0 1 6.86 6.824 18.494 18.494 0 0 1 2.5 9.349V93.81c0 4.92-1.95 9.638-5.43 13.116a18.561 18.561 0 0 1-13.12 5.432h-10.97a18.561 18.561 0 0 1-18.56-18.548V72.904c0-2.438.48-4.852 1.42-7.104a18.41 18.41 0 0 1 4.03-6.02 18.502 18.502 0 0 1 6.02-4.02c2.26-.93 4.67-1.407 7.11-1.404Z" stroke="#B1B6B9" stroke-width="2" stroke-linejoin="round"/><path fill-rule="evenodd" clip-rule="evenodd" d="M856.994 53.441a12.623 12.623 0 0 1 11.695 7.781c.637 1.534.964 3.178.964 4.839v7.203a12.61 12.61 0 0 1-7.794 11.692c-1.534.635-3.18.962-4.841.96l-.001 1v-1h-11.756a12.621 12.621 0 0 1-12.619-12.62v-7.234a12.672 12.672 0 0 1 12.621-12.621h11.731Zm.023 34.474h-1.911v27.636a1 1 0 0 1-2 0V87.915h-3.908v32.062a1 1 0 1 1-2 0V87.915h-1.937a14.62 14.62 0 0 1-14.619-14.62v-7.237a14.668 14.668 0 0 1 14.616-14.616h11.732a14.622 14.622 0 0 1 14.663 14.62v7.2a14.608 14.608 0 0 1-9.029 13.543 14.618 14.618 0 0 1-5.607 1.111Zm119.292-15.264a16.358 16.358 0 0 1 11.566-4.79h14.905c2.15 0 4.27.423 6.26 1.245a16.39 16.39 0 0 1 8.85 8.852 16.38 16.38 0 0 1 1.24 6.258v2.997l-14.98 22.437c-.45.038-.91.057-1.37.057v1-1h-14.906a16.348 16.348 0 0 1-16.355-16.348v-9.142a16.36 16.36 0 0 1 4.79-11.566Zm27.841 36.999-1.37 2.057h-2.7v29.704a1 1 0 0 1-2.003 0v-29.704h-5.508v20.519a1 1 0 0 1-2 0v-20.519h-2.694a18.345 18.345 0 0 1-18.356-18.348v-9.142a18.354 18.354 0 0 1 18.356-18.356h14.905c2.41 0 4.8.474 7.02 1.397 2.23.923 4.25 2.275 5.96 3.98a18.366 18.366 0 0 1 3.97 5.955c.93 2.227 1.4 4.614 1.4 7.024l-2 2.996-14.98 22.437Zm0 0c1.68-.141 3.33-.54 4.89-1.185a16.382 16.382 0 0 0 8.85-8.848 16.38 16.38 0 0 0 1.24-6.258v-6.145l2-2.997v9.142a18.4 18.4 0 0 1-5.37 12.976 18.385 18.385 0 0 1-5.96 3.978 18.315 18.315 0 0 1-7.02 1.394l1.37-2.057Zm287.7 113.551a1 1 0 0 0-1.03.854 6.273 6.273 0 0 1-2.15 2.209 6.264 6.264 0 0 1-6.57 0 6.235 6.235 0 0 1-2.14-2.191 1.003 1.003 0 0 0-1.03-.872 1 1 0 0 0-1.03.87 6.252 6.252 0 0 1-2.15 2.19c-.99.608-2.12.931-3.29.932a6.13 6.13 0 0 1-2.66-.608c-.5-.239-1.1-.03-1.34.467a.999.999 0 0 0 .47 1.335 8.13 8.13 0 0 0 3.53.806 8.285 8.285 0 0 0 4.34-1.227c.81-.5 1.53-1.134 2.13-1.872a8.248 8.248 0 0 0 6.45 3.1 8.256 8.256 0 0 0 6.46-3.101c.6.739 1.31 1.375 2.13 1.876 1.3.802 2.8 1.227 4.33 1.227a8.31 8.31 0 0 0 4.34-1.227 8.256 8.256 0 0 0 2.11-1.865c.59.735 1.3 1.366 2.11 1.865a8.31 8.31 0 0 0 4.34 1.227c1.53 0 3.03-.425 4.33-1.227a8.167 8.167 0 0 0 2.13-1.886 8.5 8.5 0 0 0 2.13 1.886 8.31 8.31 0 0 0 4.34 1.227c1.53 0 3.03-.425 4.33-1.227a8.137 8.137 0 0 0 2.12-1.875c.6.739 1.31 1.374 2.13 1.875 1.3.802 2.8 1.227 4.33 1.227a8.31 8.31 0 0 0 4.34-1.227 8.3 8.3 0 0 0 2.12-1.875 8.249 8.249 0 0 0 6.45 3.102c1.53 0 3.04-.425 4.34-1.227a8.305 8.305 0 0 0 2.12-1.876 8.18 8.18 0 0 0 2.13 1.875c1.3.802 2.8 1.226 4.33 1.226 1.53 0 3.03-.424 4.34-1.226.81-.5 1.53-1.134 2.12-1.871a8.305 8.305 0 0 0 2.12 1.871c1.3.802 2.8 1.226 4.33 1.226 1.54 0 3.04-.424 4.34-1.226.81-.5 1.53-1.134 2.12-1.871a8.305 8.305 0 0 0 2.12 1.871 8.308 8.308 0 0 0 4.34 1.226c1.53 0 3.03-.424 4.33-1.226a8.14 8.14 0 0 0 2.12-1.871c.6.737 1.31 1.371 2.12 1.871a8.308 8.308 0 0 0 4.34 1.226c1.53 0 3.03-.424 4.34-1.226.81-.5 1.53-1.134 2.12-1.871a8.14 8.14 0 0 0 2.12 1.871 8.282 8.282 0 0 0 8.67 0 8.3 8.3 0 0 0 2.12-1.875 8.184 8.184 0 0 0 2.13 1.876c1.3.802 2.8 1.227 4.33 1.227a8.31 8.31 0 0 0 4.34-1.227 8.3 8.3 0 0 0 2.12-1.875 8.249 8.249 0 0 0 6.45 3.102c1.53 0 3.04-.425 4.34-1.227a8.3 8.3 0 0 0 2.12-1.875 8.3 8.3 0 0 0 2.12 1.875 8.31 8.31 0 0 0 4.34 1.227c1.53 0 3.03-.425 4.33-1.227a8.137 8.137 0 0 0 2.12-1.875 8.3 8.3 0 0 0 2.12 1.875 8.31 8.31 0 0 0 4.34 1.227c1.53 0 3.03-.425 4.33-1.227a8.345 8.345 0 0 0 2.13-1.875c.59.739 1.3 1.374 2.12 1.875 1.3.802 2.8 1.227 4.33 1.227a8.31 8.31 0 0 0 4.34-1.227 8.261 8.261 0 0 0 2.22-2.006 8.261 8.261 0 0 0 2.22 2.006 8.31 8.31 0 0 0 4.34 1.227 8.31 8.31 0 0 0 4.34-1.227 8.3 8.3 0 0 0 2.12-1.875c.59.739 1.3 1.374 2.12 1.875 1.3.802 2.8 1.227 4.33 1.227a8.31 8.31 0 0 0 4.34-1.227 8.286 8.286 0 0 0 2.12-1.881 8.33 8.33 0 0 0 2.13 1.881c1.3.802 2.8 1.227 4.33 1.227 1.54 0 3.04-.425 4.34-1.227a8.3 8.3 0 0 0 2.12-1.87c.59.737 1.3 1.37 2.11 1.87a8.31 8.31 0 0 0 4.34 1.227c1.53 0 3.03-.425 4.33-1.227a8.345 8.345 0 0 0 2.13-1.875c.59.739 1.3 1.374 2.12 1.875 1.3.802 2.8 1.227 4.33 1.227a8.31 8.31 0 0 0 4.34-1.227 8.3 8.3 0 0 0 2.12-1.875 8.257 8.257 0 0 0 6.46 3.102 8.249 8.249 0 0 0 6.45-3.104c.59.74 1.31 1.375 2.13 1.876 1.3.802 2.8 1.226 4.33 1.226 1.53 0 3.03-.424 4.34-1.226.81-.5 1.53-1.134 2.12-1.871a8.305 8.305 0 0 0 2.12 1.871c1.3.802 2.8 1.226 4.34 1.226a8.248 8.248 0 0 0 6.44-3.087 8.305 8.305 0 0 0 2.12 1.861c1.3.802 2.8 1.226 4.33 1.226 1.53 0 3.03-.424 4.34-1.226a8.504 8.504 0 0 0 2.13-1.882 8.17 8.17 0 0 0 2.13 1.882c1.3.802 2.8 1.226 4.33 1.226 1.53 0 3.03-.424 4.34-1.226a8.3 8.3 0 0 0 2.12-1.875 8.305 8.305 0 0 0 2.12 1.876 8.31 8.31 0 0 0 4.34 1.227c1.53 0 3.03-.425 4.33-1.227a8.345 8.345 0 0 0 2.13-1.875c.59.739 1.3 1.374 2.12 1.875 1.3.802 2.8 1.227 4.33 1.227a8.31 8.31 0 0 0 4.34-1.227 8.3 8.3 0 0 0 2.12-1.875 8.249 8.249 0 0 0 6.45 3.102 8.257 8.257 0 0 0 6.46-3.102 8.3 8.3 0 0 0 2.12 1.875 8.31 8.31 0 0 0 4.34 1.227c1.53 0 3.03-.425 4.33-1.227a8.253 8.253 0 0 0 2.11-1.854c.59.73 1.3 1.358 2.1 1.854a8.31 8.31 0 0 0 4.34 1.227c1.53 0 3.03-.425 4.33-1.227a8.218 8.218 0 0 0 2.14-1.898c.6.748 1.32 1.391 2.14 1.897a8.308 8.308 0 0 0 4.34 1.226c1.53 0 3.03-.424 4.33-1.226a8.185 8.185 0 0 0 2.27-2.063c.62.82 1.39 1.52 2.27 2.063a8.308 8.308 0 0 0 4.34 1.226c1.53 0 3.03-.424 4.33-1.226.82-.5 1.53-1.134 2.13-1.871a8.14 8.14 0 0 0 2.12 1.871c1.3.802 2.8 1.226 4.33 1.226 1.53 0 3.03-.424 4.34-1.226a8.3 8.3 0 0 0 2.12-1.875 8.305 8.305 0 0 0 2.12 1.876 8.31 8.31 0 0 0 4.34 1.227c1.53 0 3.03-.425 4.33-1.227a8.345 8.345 0 0 0 2.13-1.875c.59.739 1.3 1.374 2.12 1.875 1.3.802 2.8 1.227 4.33 1.227a8.31 8.31 0 0 0 4.34-1.227 8.3 8.3 0 0 0 2.12-1.875 8.257 8.257 0 0 0 6.46 3.102 8.249 8.249 0 0 0 6.45-3.102 8.3 8.3 0 0 0 2.12 1.875 8.31 8.31 0 0 0 4.34 1.227c1.53 0 3.03-.425 4.33-1.227a8.137 8.137 0 0 0 2.12-1.875c.6.739 1.31 1.374 2.13 1.875 1.3.802 2.8 1.227 4.33 1.227a8.31 8.31 0 0 0 4.34-1.227 8.305 8.305 0 0 0 2.12-1.876 8.3 8.3 0 0 0 2.12 1.875 8.308 8.308 0 0 0 4.34 1.226c1.53 0 3.03-.424 4.33-1.226a8.14 8.14 0 0 0 2.12-1.871c.6.737 1.31 1.371 2.13 1.871 1.3.802 2.8 1.226 4.33 1.226 1.53 0 3.03-.424 4.34-1.226.81-.5 1.53-1.134 2.12-1.871a8.305 8.305 0 0 0 2.12 1.871c1.3.802 2.8 1.226 4.33 1.226 1.54 0 3.04-.424 4.34-1.226.81-.5 1.53-1.134 2.12-1.871a8.305 8.305 0 0 0 2.12 1.871 8.308 8.308 0 0 0 4.34 1.226c1.53 0 3.03-.424 4.33-1.226a8.166 8.166 0 0 0 2.13-1.876 8.249 8.249 0 0 0 6.45 3.104 8.257 8.257 0 0 0 6.46-3.102 8.3 8.3 0 0 0 2.12 1.875 8.31 8.31 0 0 0 4.34 1.227c1.53 0 3.03-.425 4.33-1.227a8.233 8.233 0 0 0 2.14-1.897c.6.748 1.32 1.391 2.14 1.897 1.3.802 2.8 1.227 4.33 1.227a8.257 8.257 0 0 0 6.44-3.081c.59.73 1.3 1.358 2.11 1.854 1.3.802 2.8 1.227 4.33 1.227 1.53 0 3.04-.425 4.34-1.227a8.3 8.3 0 0 0 2.12-1.875 8.3 8.3 0 0 0 2.12 1.875 8.31 8.31 0 0 0 4.34 1.227 8.26 8.26 0 0 0 6.55-3.228 8.273 8.273 0 0 0 6.56 3.226c1.53 0 3.03-.424 4.34-1.226a8.3 8.3 0 0 0 2.12-1.875 8.305 8.305 0 0 0 2.12 1.876 8.31 8.31 0 0 0 4.34 1.227c1.53 0 3.03-.425 4.33-1.227a8.137 8.137 0 0 0 2.12-1.875 8.3 8.3 0 0 0 2.12 1.875 8.31 8.31 0 0 0 4.34 1.227 8.31 8.31 0 0 0 4.34-1.227 8.3 8.3 0 0 0 2.12-1.875c.59.739 1.3 1.374 2.12 1.875 1.3.802 2.8 1.227 4.33 1.227a8.31 8.31 0 0 0 4.34-1.227 8.3 8.3 0 0 0 2.12-1.875 8.3 8.3 0 0 0 2.12 1.875 8.283 8.283 0 0 0 4.34 1.227 8.249 8.249 0 0 0 6.45-3.102 8.3 8.3 0 0 0 2.12 1.875 8.31 8.31 0 0 0 4.34 1.227c1.53 0 3.03-.425 4.33-1.227a8.349 8.349 0 0 0 2.13-1.876 8.3 8.3 0 0 0 2.12 1.875 8.282 8.282 0 0 0 8.67 0c.81-.5 1.53-1.134 2.12-1.871a8.305 8.305 0 0 0 2.12 1.871 8.308 8.308 0 0 0 4.34 1.226c1.53 0 3.03-.424 4.34-1.226.81-.5 1.52-1.134 2.12-1.871a8.14 8.14 0 0 0 2.12 1.871c1.3.802 2.8 1.226 4.33 1.226 1.53 0 3.03-.424 4.34-1.226.81-.5 1.53-1.134 2.12-1.871a8.305 8.305 0 0 0 2.12 1.871c1.3.802 2.8 1.226 4.34 1.226 1.53 0 3.03-.424 4.33-1.226.81-.5 1.53-1.134 2.12-1.871a8.305 8.305 0 0 0 2.12 1.871 8.308 8.308 0 0 0 4.34 1.226c1.53 0 3.03-.424 4.33-1.226a8.166 8.166 0 0 0 2.13-1.876 8.257 8.257 0 0 0 6.46 3.104 8.249 8.249 0 0 0 6.45-3.102 8.3 8.3 0 0 0 2.12 1.875 8.31 8.31 0 0 0 4.34 1.227c1.53 0 3.03-.425 4.33-1.227a8.345 8.345 0 0 0 2.13-1.875c.59.739 1.3 1.374 2.12 1.875 1.3.802 2.8 1.227 4.33 1.227a8.31 8.31 0 0 0 4.34-1.227 8.3 8.3 0 0 0 2.12-1.875 8.249 8.249 0 0 0 6.45 3.102 8.257 8.257 0 0 0 6.46-3.103 8.324 8.324 0 0 0 4.23 2.795 8.277 8.277 0 0 0 6.61-.954c.47-.293.61-.91.32-1.378-.3-.468-.91-.611-1.38-.318a6.29 6.29 0 0 1-5.01.723 6.219 6.219 0 0 1-2.29-1.194 6.244 6.244 0 0 1-1.46-1.713.976.976 0 0 0-.53-.746 1.025 1.025 0 0 0-.49-.107.963.963 0 0 0-.48.107.967.967 0 0 0-.54.747 6.28 6.28 0 0 1-5.44 3.141c-1.16 0-2.29-.322-3.28-.93a6.287 6.287 0 0 1-2.15-2.211.989.989 0 0 0-.54-.747.963.963 0 0 0-.48-.107c-.16-.006-.33.028-.49.107-.3.152-.49.436-.54.747a6.167 6.167 0 0 1-2.14 2.211 6.29 6.29 0 0 1-6.58 0 6.343 6.343 0 0 1-2.14-2.21 1.014 1.014 0 0 0-.54-.748.987.987 0 0 0-.48-.107 1 1 0 0 0-1.03.855 6.343 6.343 0 0 1-2.14 2.21 6.29 6.29 0 0 1-6.58 0 6.26 6.26 0 0 1-2.14-2.211 1.013 1.013 0 0 0-.54-.747 1.025 1.025 0 0 0-.49-.107.963.963 0 0 0-.48.107c-.3.152-.5.436-.54.747a6.28 6.28 0 0 1-5.43 3.141 6.29 6.29 0 0 1-3.29-.93 6.287 6.287 0 0 1-2.15-2.211.967.967 0 0 0-.54-.747.963.963 0 0 0-.48-.107c-.16-.006-.33.028-.49.107a.976.976 0 0 0-.53.746 6.276 6.276 0 0 1-5.44 3.14 6.29 6.29 0 0 1-5.43-3.12 1 1 0 0 0-1.03-.873c-.16-.006-.33.028-.49.107a.991.991 0 0 0-.54.766 6.224 6.224 0 0 1-2.14 2.19 6.264 6.264 0 0 1-6.57 0 6.235 6.235 0 0 1-2.14-2.191.99.99 0 0 0-.54-.765 1.025 1.025 0 0 0-.49-.107 1 1 0 0 0-1.03.872 6.29 6.29 0 0 1-8.72 2.191 6.293 6.293 0 0 1-2.13-2.191c-.04-.317-.24-.61-.54-.765a1.025 1.025 0 0 0-.49-.107.977.977 0 0 0-.49.107.99.99 0 0 0-.54.765 6.29 6.29 0 0 1-8.72 2.191 6.321 6.321 0 0 1-2.14-2.191.99.99 0 0 0-.54-.765.977.977 0 0 0-.49-.107c-.16-.006-.33.028-.49.107-.3.155-.5.448-.54.765a6.235 6.235 0 0 1-2.14 2.191 6.23 6.23 0 0 1-3.28.93 6.29 6.29 0 0 1-5.44-3.139 1.013 1.013 0 0 0-.54-.747.987.987 0 0 0-.48-.107 1 1 0 0 0-1.03.855 6.257 6.257 0 0 1-2.14 2.21 6.29 6.29 0 0 1-6.58 0 6.26 6.26 0 0 1-2.14-2.211 1 1 0 0 0-1.03-.854.963.963 0 0 0-.48.107c-.3.152-.5.436-.54.747a6.28 6.28 0 0 1-5.43 3.141 6.28 6.28 0 0 1-5.44-3.141.966.966 0 0 0-.54-.747.963.963 0 0 0-.48-.107.963.963 0 0 0-.48.107.967.967 0 0 0-.54.748 6.285 6.285 0 0 1-5.44 3.14 6.28 6.28 0 0 1-5.43-3.141 1.013 1.013 0 0 0-.54-.747.963.963 0 0 0-.48-.107 1 1 0 0 0-1.03.855 6.257 6.257 0 0 1-2.14 2.21 6.29 6.29 0 0 1-6.58 0 6.26 6.26 0 0 1-2.14-2.211 1 1 0 0 0-1.03-.854.963.963 0 0 0-.48.107c-.3.152-.49.436-.54.747a6.28 6.28 0 0 1-5.43 3.141 6.28 6.28 0 0 1-5.44-3.141.978.978 0 0 0-.53-.747 1.025 1.025 0 0 0-.49-.107.963.963 0 0 0-.48.107.966.966 0 0 0-.54.746 6.29 6.29 0 0 1-8.73 2.21 6.234 6.234 0 0 1-2.31-2.515 1.008 1.008 0 0 0-.96-.547c-.39-.024-.77.179-.96.548a6.243 6.243 0 0 1-2.31 2.516 6.23 6.23 0 0 1-3.28.93 6.29 6.29 0 0 1-3.29-.93 6.287 6.287 0 0 1-2.15-2.211.966.966 0 0 0-.54-.747.963.963 0 0 0-.48-.107.963.963 0 0 0-.48.107.966.966 0 0 0-.54.747 6.28 6.28 0 0 1-5.44 3.141 6.285 6.285 0 0 1-5.39-3.069.991.991 0 0 0-1.05-.925.991.991 0 0 0-1.04.925 6.276 6.276 0 0 1-2.11 2.139 6.264 6.264 0 0 1-6.57 0 6.262 6.262 0 0 1-2.2-2.303 1.005 1.005 0 0 0-.99-.763 1.005 1.005 0 0 0-.99.763 6.262 6.262 0 0 1-2.2 2.303 6.23 6.23 0 0 1-3.28.93 6.29 6.29 0 0 1-3.29-.93 6.173 6.173 0 0 1-2.14-2.21 1.014 1.014 0 0 0-.54-.748 1.025 1.025 0 0 0-.49-.107.963.963 0 0 0-.48.107.967.967 0 0 0-.54.748 6.285 6.285 0 0 1-5.44 3.14c-1.16 0-2.29-.322-3.28-.93a6.287 6.287 0 0 1-2.15-2.211.989.989 0 0 0-.54-.747.963.963 0 0 0-.48-.107c-.16-.006-.33.028-.49.107-.3.152-.49.436-.54.746a6.257 6.257 0 0 1-2.14 2.21 6.29 6.29 0 0 1-6.58 0 6.327 6.327 0 0 1-2.14-2.19 1 1 0 0 0-1.03-.873c-.16-.006-.33.028-.49.107a.99.99 0 0 0-.54.766 6.232 6.232 0 0 1-2.14 2.19 6.264 6.264 0 0 1-6.57 0 6.224 6.224 0 0 1-2.14-2.19.991.991 0 0 0-.54-.766 1.025 1.025 0 0 0-.49-.107 1 1 0 0 0-1.03.873 6.29 6.29 0 0 1-8.72 2.19 6.293 6.293 0 0 1-2.13-2.191c-.05-.317-.24-.61-.55-.765a.977.977 0 0 0-.49-.107.963.963 0 0 0-.48.107c-.31.155-.5.448-.55.765a6.293 6.293 0 0 1-2.13 2.191 6.29 6.29 0 0 1-6.58 0 6.276 6.276 0 0 1-2.15-2.21.989.989 0 0 0-.54-.746.963.963 0 0 0-.48-.107 1 1 0 0 0-1.03.855 6.257 6.257 0 0 1-2.14 2.21 6.29 6.29 0 0 1-6.58 0 6.257 6.257 0 0 1-2.14-2.21 1 1 0 0 0-1.03-.855.987.987 0 0 0-.48.107c-.3.152-.49.437-.54.748a6.285 6.285 0 0 1-5.43 3.14 6.29 6.29 0 0 1-3.29-.93 6.175 6.175 0 0 1-2.14-2.211 1.013 1.013 0 0 0-.54-.747 1.025 1.025 0 0 0-.49-.107.963.963 0 0 0-.48.107c-.3.152-.5.436-.54.747a6.287 6.287 0 0 1-2.15 2.211 6.264 6.264 0 0 1-6.57 0 6.285 6.285 0 0 1-2.15-2.21.967.967 0 0 0-.54-.748.963.963 0 0 0-.48-.107c-.16-.006-.33.028-.49.107a.978.978 0 0 0-.53.748 6.285 6.285 0 0 1-5.44 3.14 6.23 6.23 0 0 1-3.28-.93 6.287 6.287 0 0 1-2.15-2.211 1.013 1.013 0 0 0-.54-.747.987.987 0 0 0-.48-.107 1 1 0 0 0-1.03.854 6.26 6.26 0 0 1-2.14 2.211 6.29 6.29 0 0 1-6.58 0 6.257 6.257 0 0 1-2.14-2.21 1 1 0 0 0-1.03-.855.963.963 0 0 0-.48.107c-.3.152-.49.436-.54.747a6.29 6.29 0 0 1-8.73 2.209 6.299 6.299 0 0 1-2.13-2.19 1.025 1.025 0 0 0-.55-.766.963.963 0 0 0-.48-.107.977.977 0 0 0-.49.107.99.99 0 0 0-.54.765 6.29 6.29 0 0 1-8.72 2.191 6.234 6.234 0 0 1-2.31-2.515 1.01 1.01 0 0 0-1.01-.543.995.995 0 0 0-1 .543 6.234 6.234 0 0 1-2.31 2.515 6.29 6.29 0 0 1-6.58 0 6.252 6.252 0 0 1-2.2-2.302 1.007 1.007 0 0 0-.99-.762 1.005 1.005 0 0 0-.99.763 6.262 6.262 0 0 1-2.2 2.303 6.23 6.23 0 0 1-3.28.93 6.29 6.29 0 0 1-3.29-.93 6.168 6.168 0 0 1-2.1-2.139 1.024 1.024 0 0 0-.55-.819.973.973 0 0 0-.5-.106.973.973 0 0 0-.5.106.982.982 0 0 0-.55.819 6.285 6.285 0 0 1-5.39 3.069 6.29 6.29 0 0 1-5.44-3.14.978.978 0 0 0-.53-.748 1.025 1.025 0 0 0-.49-.107.963.963 0 0 0-.48.107.967.967 0 0 0-.54.748 6.285 6.285 0 0 1-5.44 3.14 6.285 6.285 0 0 1-5.43-3.14.99.99 0 0 0-.54-.748.963.963 0 0 0-.48-.107c-.16-.006-.33.028-.49.107-.3.152-.49.437-.54.748a6.173 6.173 0 0 1-2.14 2.21 6.29 6.29 0 0 1-6.58 0 6.346 6.346 0 0 1-2.14-2.211 1.013 1.013 0 0 0-.54-.747.987.987 0 0 0-.48-.107 1 1 0 0 0-1.03.854 6.346 6.346 0 0 1-2.14 2.211 6.29 6.29 0 0 1-6.58 0 6.251 6.251 0 0 1-2.14-2.211 1 1 0 0 0-1.03-.854.963.963 0 0 0-.48.107c-.3.152-.5.436-.54.746a6.29 6.29 0 0 1-8.73 2.21 6.329 6.329 0 0 1-2.16-2.23 1 1 0 0 0-.53-.726 1.01 1.01 0 0 0-.48-.107.96.96 0 0 0-.48.107.987.987 0 0 0-.54.726 6.244 6.244 0 0 1-2.16 2.23 6.29 6.29 0 0 1-6.58 0 6.2 6.2 0 0 1-2.11-2.155c-.03-.331-.23-.64-.55-.801a.994.994 0 0 0-.5-.107.98.98 0 0 0-.49.107c-.32.161-.52.47-.55.801a6.229 6.229 0 0 1-2.12 2.155 6.264 6.264 0 0 1-6.57 0 6.224 6.224 0 0 1-2.14-2.19.991.991 0 0 0-.54-.766 1.013 1.013 0 0 0-.49-.107.99.99 0 0 0-.49.107.991.991 0 0 0-.54.766 6.29 6.29 0 0 1-8.72 2.19 6.363 6.363 0 0 1-2.15-2.21.976.976 0 0 0-.53-.746 1.025 1.025 0 0 0-.49-.107.963.963 0 0 0-.48.107.967.967 0 0 0-.54.747 6.287 6.287 0 0 1-2.15 2.211 6.264 6.264 0 0 1-6.57 0 6.287 6.287 0 0 1-2.15-2.211.989.989 0 0 0-.54-.747.963.963 0 0 0-.48-.107c-.16-.006-.33.028-.49.107a.976.976 0 0 0-.53.747 6.287 6.287 0 0 1-2.15 2.211 6.29 6.29 0 0 1-3.29.93 6.285 6.285 0 0 1-5.43-3.14 1.014 1.014 0 0 0-.54-.748.987.987 0 0 0-.48-.107 1 1 0 0 0-1.03.855 6.257 6.257 0 0 1-2.14 2.21 6.29 6.29 0 0 1-6.58 0 6.293 6.293 0 0 1-2.13-2.191 1.013 1.013 0 0 0-.54-.767c-.16-.08-.33-.113-.49-.107a.99.99 0 0 0-.49.107.99.99 0 0 0-.54.767 6.321 6.321 0 0 1-2.14 2.191 6.264 6.264 0 0 1-6.57 0 6.247 6.247 0 0 1-2.16-2.231.987.987 0 0 0-.54-.727.96.96 0 0 0-.48-.107 1.01 1.01 0 0 0-.48.107 1 1 0 0 0-.53.727 6.247 6.247 0 0 1-2.16 2.231 6.29 6.29 0 0 1-3.29.93 6.285 6.285 0 0 1-5.43-3.14 1.014 1.014 0 0 0-.54-.748.963.963 0 0 0-.48-.107 1 1 0 0 0-1.03.854 6.251 6.251 0 0 1-2.14 2.211 6.29 6.29 0 0 1-6.58 0 6.243 6.243 0 0 1-2.31-2.516.993.993 0 0 0-.96-.548c-.39-.026-.77.178-.96.548a6.243 6.243 0 0 1-2.31 2.516 6.29 6.29 0 0 1-3.29.93 6.23 6.23 0 0 1-3.28-.93 6.287 6.287 0 0 1-2.15-2.211 1.013 1.013 0 0 0-.54-.747.987.987 0 0 0-.48-.107 1 1 0 0 0-1.03.854 6.26 6.26 0 0 1-2.14 2.211 6.29 6.29 0 0 1-6.58 0 6.257 6.257 0 0 1-2.14-2.21 1 1 0 0 0-1.03-.855.963.963 0 0 0-.48.107c-.3.152-.49.437-.54.748a6.285 6.285 0 0 1-5.43 3.14 6.29 6.29 0 0 1-3.29-.93 6.287 6.287 0 0 1-2.15-2.211.966.966 0 0 0-.54-.747.963.963 0 0 0-.48-.107.963.963 0 0 0-.48.107.966.966 0 0 0-.54.747 6.287 6.287 0 0 1-2.15 2.211 6.29 6.29 0 0 1-3.29.93 6.285 6.285 0 0 1-5.43-3.14 1.014 1.014 0 0 0-.54-.748.963.963 0 0 0-.48-.107 1 1 0 0 0-1.03.854 6.251 6.251 0 0 1-2.14 2.211 6.29 6.29 0 0 1-6.58 0 6.251 6.251 0 0 1-2.14-2.211 1 1 0 0 0-1.03-.854.987.987 0 0 0-.48.107c-.3.152-.49.436-.54.746a6.276 6.276 0 0 1-10.86.02 1.013 1.013 0 0 0-.54-.766 1.025 1.025 0 0 0-.49-.107.977.977 0 0 0-.49.107.99.99 0 0 0-.54.765 6.29 6.29 0 0 1-8.72 2.191 6.327 6.327 0 0 1-2.14-2.19.99.99 0 0 0-.54-.766.977.977 0 0 0-.49-.107c-.16-.006-.33.028-.49.107-.3.155-.5.448-.54.766a6.299 6.299 0 0 1-2.13 2.19 6.29 6.29 0 0 1-6.58 0 6.235 6.235 0 0 1-2.14-2.191 1 1 0 0 0-1.03-.872c-.16-.006-.33.028-.49.107a.99.99 0 0 0-.54.765 6.235 6.235 0 0 1-2.14 2.191 6.264 6.264 0 0 1-6.57 0 6.24 6.24 0 0 1-2.14-2.19 1.013 1.013 0 0 0-.54-.766 1.025 1.025 0 0 0-.49-.107 1 1 0 0 0-1.03.873 6.29 6.29 0 0 1-8.72 2.19 6.268 6.268 0 0 1-2.15-2.21.976.976 0 0 0-.53-.746 1.025 1.025 0 0 0-.49-.107.963.963 0 0 0-.48.107.967.967 0 0 0-.54.748 6.285 6.285 0 0 1-5.44 3.14c-1.16 0-2.29-.322-3.28-.93a6.287 6.287 0 0 1-2.15-2.211.989.989 0 0 0-.54-.747.963.963 0 0 0-.48-.107c-.16-.006-.33.028-.49.107-.3.152-.49.436-.54.747a6.26 6.26 0 0 1-2.14 2.211 6.29 6.29 0 0 1-6.58 0 6.257 6.257 0 0 1-2.14-2.21 1 1 0 0 0-1.03-.855.987.987 0 0 0-.48.107c-.3.152-.49.437-.54.748a6.285 6.285 0 0 1-5.43 3.14 6.29 6.29 0 0 1-3.29-.93 6.297 6.297 0 0 1-2.17-2.253 1 1 0 0 0-1.01-.812.947.947 0 0 0-.47.107.974.974 0 0 0-.53.705 6.325 6.325 0 0 1-2.18 2.253 6.23 6.23 0 0 1-3.28.93 6.246 6.246 0 0 1-5.41-3.103 1.003 1.003 0 0 0-.55-.785.979.979 0 0 0-.49-.107.979.979 0 0 0-.49.107c-.32.158-.51.46-.55.785a6.246 6.246 0 0 1-5.41 3.103 6.285 6.285 0 0 1-5.43-3.14 1.016 1.016 0 0 0-.54-.748.963.963 0 0 0-.48-.107Zm-924.677 24.783a1 1 0 0 0-1.786.901 8.28 8.28 0 0 0 3.048 3.318 8.277 8.277 0 0 0 8.671 0 8.272 8.272 0 0 0 2.121-1.875 8.272 8.272 0 0 0 10.792 1.875 8.297 8.297 0 0 0 2.122-1.876 8.285 8.285 0 0 0 6.46 3.101 8.276 8.276 0 0 0 6.456-3.097 8.276 8.276 0 0 0 12.913 0 8.276 8.276 0 0 0 12.913 0 8.276 8.276 0 0 0 13.844-1.445 1 1 0 0 0-1.785-.903 6.279 6.279 0 0 1-11.028.325 1.001 1.001 0 0 0-1.031-.873 1.004 1.004 0 0 0-1.03.873 6.278 6.278 0 0 1-10.852 0 1.001 1.001 0 0 0-1.031-.873 1.004 1.004 0 0 0-1.03.873 6.278 6.278 0 0 1-10.852 0 1.001 1.001 0 0 0-1.031-.873 1.004 1.004 0 0 0-1.03.873 6.278 6.278 0 0 1-10.864-.02.997.997 0 0 0-1.023-.853.997.997 0 0 0-1.023.854 6.27 6.27 0 0 1-10.866.001 1 1 0 0 0-1.024-.855 1 1 0 0 0-1.024.855 6.265 6.265 0 0 1-5.432 3.14 6.272 6.272 0 0 1-5.598-3.446Zm56.514-11.951a.987.987 0 0 1 .484-.107.999.999 0 0 1 1.024.855 6.275 6.275 0 0 0 10.866 0 .999.999 0 0 1 1.023-.855.999.999 0 0 1 1.024.855 6.275 6.275 0 0 0 10.866 0 1.001 1.001 0 0 1 1.023-.855.997.997 0 0 1 1.024.854 6.27 6.27 0 0 0 2.149 2.209 6.27 6.27 0 0 0 6.577 0 6.269 6.269 0 0 0 2.097-2.122 1 1 0 0 1 1.054-.94 1.001 1.001 0 0 1 1.053.94 6.272 6.272 0 0 0 2.098 2.122 6.27 6.27 0 0 0 6.577 0 6.276 6.276 0 0 0 2.314-2.514 1 1 0 1 1 1.784.902 8.274 8.274 0 0 1-7.387 4.543 8.277 8.277 0 0 1-6.439-3.077 8.278 8.278 0 0 1-12.9-.025 8.263 8.263 0 0 1-6.457 3.103 8.262 8.262 0 0 1-6.457-3.102 8.272 8.272 0 0 1-10.791 1.875 8.293 8.293 0 0 1-2.122-1.875 8.272 8.272 0 0 1-10.791 1.875 8.293 8.293 0 0 1-2.122-1.875 8.272 8.272 0 0 1-10.791 1.875 8.277 8.277 0 0 1-2.126-1.88 8.273 8.273 0 0 1-6.461 3.107 8.267 8.267 0 0 1-6.453-3.098 8.277 8.277 0 0 1-12.912-.001 8.288 8.288 0 0 1-6.456 3.098 8.277 8.277 0 0 1-6.457-3.098 8.288 8.288 0 0 1-6.456 3.098 8.277 8.277 0 0 1-6.457-3.098 8.288 8.288 0 0 1-6.456 3.098 8.277 8.277 0 0 1-7.388-4.543 1.001 1.001 0 0 1 1.785-.902 6.276 6.276 0 0 0 8.891 2.514 6.27 6.27 0 0 0 2.138-2.19 1 1 0 0 1 1.03-.873.998.998 0 0 1 1.03.873 6.273 6.273 0 0 0 10.853 0 1 1 0 0 1 1.03-.873.998.998 0 0 1 1.03.873 6.273 6.273 0 0 0 10.853 0 1 1 0 0 1 1.03-.873 1.001 1.001 0 0 1 1.031.873 6.273 6.273 0 0 0 10.852 0 .999.999 0 0 1 1.03-.873 1.003 1.003 0 0 1 1.031.874 6.264 6.264 0 0 0 5.421 3.121 6.272 6.272 0 0 0 5.445-3.161.999.999 0 0 1 1.016-.834.996.996 0 0 1 1.016.834 6.275 6.275 0 0 0 5.445 3.161 6.275 6.275 0 0 0 5.433-3.14.999.999 0 0 1 1.023-.855.999.999 0 0 1 1.024.855 6.275 6.275 0 0 0 10.866 0 .999.999 0 0 1 .539-.748Zm-96.63-11.508a.983.983 0 0 1 .501-.106 1 1 0 0 1 1.049.925 6.259 6.259 0 0 0 5.39 3.069 6.272 6.272 0 0 0 5.485-3.233 1 1 0 0 1 .989-.763 1.002 1.002 0 0 1 .989.763 6.265 6.265 0 0 0 8.771 2.303 6.26 6.26 0 0 0 2.146-2.211.998.998 0 0 1 1.024-.854.998.998 0 0 1 1.024.854 6.26 6.26 0 0 0 5.433 3.141 6.271 6.271 0 0 0 5.432-3.141.998.998 0 0 1 1.024-.854.998.998 0 0 1 1.024.854 6.26 6.26 0 0 0 5.433 3.141 6.271 6.271 0 0 0 5.432-3.141.998.998 0 0 1 1.024-.854.998.998 0 0 1 1.024.854 6.26 6.26 0 0 0 5.433 3.141 6.271 6.271 0 0 0 5.433-3.141.995.995 0 0 1 1.023-.854.997.997 0 0 1 1.023.853 6.282 6.282 0 0 0 5.438 3.14 6.278 6.278 0 0 0 5.426-3.12.997.997 0 0 1 1.03-.873 1 1 0 0 1 1.031.873 6.275 6.275 0 0 0 8.714 2.19 6.278 6.278 0 0 0 2.138-2.19.997.997 0 0 1 1.03-.873 1 1 0 0 1 1.031.873 6.275 6.275 0 0 0 10.852-.001 1 1 0 0 1 1.03-.872 1 1 0 0 1 1.031.872 6.278 6.278 0 0 0 10.863-.019 1 1 0 0 1 1.024-.853 1.002 1.002 0 0 1 1.023.854 6.276 6.276 0 0 0 2.146 2.211 6.277 6.277 0 0 0 6.574 0 6.273 6.273 0 0 0 2.146-2.21.999.999 0 0 1 1.024-.855.999.999 0 0 1 1.023.855 6.282 6.282 0 0 0 2.146 2.21 6.277 6.277 0 0 0 6.574 0 6.282 6.282 0 0 0 2.146-2.21.999.999 0 0 1 1.024-.855.999.999 0 0 1 1.023.855 6.282 6.282 0 0 0 2.146 2.21 6.277 6.277 0 0 0 6.574 0 6.268 6.268 0 0 0 2.146-2.211.997.997 0 0 1 1.024-.854.997.997 0 0 1 1.023.854 6.276 6.276 0 0 0 2.146 2.211 6.277 6.277 0 0 0 6.574 0 6.273 6.273 0 0 0 2.146-2.21.999.999 0 0 1 1.024-.855.999.999 0 0 1 1.023.855 6.282 6.282 0 0 0 2.146 2.21 6.277 6.277 0 0 0 6.574 0 6.28 6.28 0 0 0 2.311-2.516 1 1 0 0 1 1.786.901 8.275 8.275 0 0 1-7.384 4.545 8.274 8.274 0 0 1-6.456-3.102 8.276 8.276 0 0 1-6.457 3.102 8.274 8.274 0 0 1-6.456-3.102 8.276 8.276 0 0 1-6.457 3.102 8.274 8.274 0 0 1-6.456-3.102 8.276 8.276 0 0 1-6.457 3.102 8.274 8.274 0 0 1-6.456-3.102 8.276 8.276 0 0 1-6.457 3.102 8.274 8.274 0 0 1-6.457-3.103 8.276 8.276 0 0 1-12.917.004 8.276 8.276 0 0 1-12.913 0 8.276 8.276 0 0 1-12.913 0 8.276 8.276 0 0 1-12.916-.004 8.276 8.276 0 0 1-10.793 1.876 8.272 8.272 0 0 1-2.121-1.875 8.272 8.272 0 0 1-10.792 1.875 8.272 8.272 0 0 1-2.121-1.875 8.272 8.272 0 0 1-10.792 1.875 8.272 8.272 0 0 1-2.121-1.875 8.272 8.272 0 0 1-10.792 1.875 8.289 8.289 0 0 1-2.138-1.897 8.277 8.277 0 0 1-10.809 1.897 8.268 8.268 0 0 1-2.105-1.855 8.273 8.273 0 0 1-6.443 3.08 8.276 8.276 0 0 1-6.456-3.097 8.276 8.276 0 0 1-12.913 0 8.276 8.276 0 0 1-13.844-1.445l1.785-.903a6.279 6.279 0 0 0 11.028.325 1.001 1.001 0 0 1 1.885-.325 6.279 6.279 0 0 0 11.028.325 1 1 0 0 1 1.031-.873 1.004 1.004 0 0 1 1.03.873 6.278 6.278 0 0 0 10.822.052.996.996 0 0 1 .547-.818Z" fill="#B1B6B9"/><path fill-rule="evenodd" clip-rule="evenodd" d="M432.023 93.38a164.82 164.82 0 0 0-33.216-2.86 164.865 164.865 0 0 0-33.22 2.86 194.725 194.725 0 0 0-67.675 25.968h-.001a222.06 222.06 0 0 0-55.442 48.849 251.982 251.982 0 0 0-5.691 7.247 1 1 0 1 0 1.595 1.206 251.197 251.197 0 0 1 5.647-7.19l.001-.002c.504-.621 1.011-1.239 1.521-1.855l27.498 22.17a158.094 158.094 0 0 0-14.308 22.897 1 1 0 1 0 1.78.911 156.196 156.196 0 0 1 14.086-22.552l8.214 6.623a158.81 158.81 0 0 0-10.092 14.612 1 1 0 0 0 1.707 1.043 156.67 156.67 0 0 1 9.942-14.399l8.41 6.78a131.513 131.513 0 0 0-4.758 6.896c-.104.162-.159.35-.159.542v12.291a1 1 0 1 0 2 0V213.42a129.763 129.763 0 0 1 78.892-55.736 1.01 1.01 0 0 0 .843-.198 129.754 129.754 0 0 1 58.354-.016 1.005 1.005 0 0 0 .888.208 129.766 129.766 0 0 1 78.918 55.742v11.997a1 1 0 1 0 2 0v-12.291c0-.192-.055-.38-.159-.542a131.53 131.53 0 0 0-4.68-6.79l8.385-6.791a157.488 157.488 0 0 1 9.889 14.313 1 1 0 0 0 1.706-1.044 159.058 159.058 0 0 0-10.041-14.528l8.125-6.581a157.515 157.515 0 0 1 14.075 22.421.999.999 0 1 0 1.777-.917 159.513 159.513 0 0 0-14.297-22.763l27.536-22.304c.511.616 1.019 1.236 1.525 1.859l.001.001a251.197 251.197 0 0 1 5.647 7.19.999.999 0 1 0 1.595-1.206 251.982 251.982 0 0 0-5.691-7.247 222.339 222.339 0 0 0-55.442-48.848l-.001-.001a194.783 194.783 0 0 0-67.684-25.967Zm123.127 74.817.001.002-.777.63.775-.632h.001Zm-125.341-12.343a131.741 131.741 0 0 1 27.99 10.243l4.327-9.438a141.544 141.544 0 0 0-30.062-11.06l-2.255 10.255Zm2.685-12.209a143.454 143.454 0 0 1 30.466 11.195l4.583-9.994a153.55 153.55 0 0 0-32.683-11.958l-2.366 10.757Zm.418-11.214-2.365 10.755a142.338 142.338 0 0 0-30.742-3.555v-11.008a153.156 153.156 0 0 1 33.107 3.808Zm-2.794 12.709-2.256 10.258a131.802 131.802 0 0 0-28.057-3.239v-10.528a140.348 140.348 0 0 1 30.313 3.509Zm-31.311-54.62.998 1.987v34.116c24.592.142 47.864 6.052 68.572 16.403l14.168-30.899a192.78 192.78 0 0 0-50.882-16.78l-32.856-4.828Zm-29.099 64.889a131.797 131.797 0 0 1 28.097-3.25v-10.528a140.725 140.725 0 0 0-30.351 3.527l2.254 10.251Zm-2.684-12.205a142.732 142.732 0 0 1 30.781-3.573v-11.007a154.766 154.766 0 0 0-33.148 3.813l2.367 10.767Zm-4.315-10.312 2.369 10.771a143.729 143.729 0 0 0-29.921 10.924l-4.728-9.996a153.99 153.99 0 0 1 32.28-11.699Zm2.798 12.726 2.254 10.248a131.771 131.771 0 0 0-27.309 9.916l-4.439-9.386a141.746 141.746 0 0 1 29.494-10.778Zm148.114 50.554 8.148-6.601a158.69 158.69 0 0 0-23.772-24.737l-6.842 8.432a155.518 155.518 0 0 1 22.466 22.906Zm-44.294-50.419a156.834 156.834 0 0 1 27.128 17.807l-6.849 8.441a149.207 149.207 0 0 0-24.863-16.252l4.584-9.996Zm-5.418 11.817a147.206 147.206 0 0 1 24.437 15.984l-6.523 8.038a131.733 131.733 0 0 0-22.242-14.586l.006-.012.01-.022 4.312-9.402Zm39.81 46.622a131.692 131.692 0 0 0-20.352-21.328l6.528-8.046a153.479 153.479 0 0 1 22.172 22.612l-8.348 6.762Zm-170.348-48.703-4.729-10a156.035 156.035 0 0 0-27.593 18.003l6.92 8.523a149.004 149.004 0 0 1 25.402-16.526Zm-57.563 33.947a157.117 157.117 0 0 1 23.698-24.67l6.913 8.514a154.984 154.984 0 0 0-22.37 22.801l-8.241-6.645Zm9.798 7.9a153.01 153.01 0 0 1 22.074-22.504l6.541 8.057a131.813 131.813 0 0 0-20.242 21.197l-8.373-6.75Zm50.105-29.091a131.778 131.778 0 0 0-19.947 13.372l-6.535-8.05a147.021 147.021 0 0 1 24.998-16.269l4.438 9.384a130.21 130.21 0 0 0-2.954 1.563Zm134.451-24.312 14.173-30.912a192.605 192.605 0 0 1 14.32 8.028 220.336 220.336 0 0 1 52.134 45.017l-27.465 22.246c-14.199-18.39-32.349-33.641-53.162-44.379Zm-195.911 44.248c14.265-18.515 32.55-33.795 53.535-44.501l-14.5-30.661a192.891 192.891 0 0 0-14.323 8.03 220.043 220.043 0 0 0-52.137 45.02l27.425 22.112Zm55.323-45.399-14.499-30.657a192.733 192.733 0 0 1 50.872-16.777l.008-.002a162.88 162.88 0 0 1 31.85-2.839v34.117c-24.461.168-47.613 5.969-68.231 16.158Z" fill="#B1B6B9"/><path fill-rule="evenodd" clip-rule="evenodd" d="M878.743 212.126c-8.759-27.668-30.399-49.807-58.059-59.681 22.656-34.049 55.767-55.413 92.564-55.413 55.287 0 102.292 48.245 117.912 115.094h-4.96c-.56 0-1 .448-1 1s.44 1 1 1h30.81c.55 0 1-.448 1-1s-.45-1-1-1h-23.79c-5.03-21.725-13.36-41.58-24.23-58.523 17.34-31.472 42.31-50.987 69.78-50.987 21.15 0 40.76 11.537 56.6 31.196 15.67 19.452 27.58 46.791 33.52 78.484h-28.17a1.001 1.001 0 0 0 0 2h73.97c18.88.061 37.44 4.838 54 13.897.48.265 1.09.087 1.36-.397.26-.485.08-1.092-.4-1.357a115.29 115.29 0 0 0-54.96-14.143h-43.76c-5.97-32.1-18.02-59.9-34-79.739-16.09-19.971-36.23-31.941-58.16-31.941-28.22 0-53.51 19.83-71.02 51.092-22.946-34.686-56.713-56.676-94.502-56.676-37.787 0-71.584 22.032-94.518 56.74l-.095-.032a1 1 0 1 0-.629 1.898c27.839 9.23 49.734 31.049 58.637 58.488h-7.828a1 1 0 1 0 0 2h30.814a1 1 0 0 0 0-2h-20.886ZM684.551 102.174c-21.642 0-41.507 11.803-57.378 31.499-15.733 19.525-27.606 46.871-33.501 78.453h-85.136a1 1 0 0 0 0 2h85.781l.004.001c.124.022.247.021.364-.001h17.112a1 1 0 1 0 0-2h-16.091c5.872-31.175 17.602-58.059 33.024-77.198 15.62-19.383 34.962-30.754 55.821-30.754 20.859 0 40.202 11.367 55.822 30.746 15.426 19.138 27.159 46.024 33.034 77.206h-21.116a1 1 0 0 0 0 2h63.357a1 1 0 0 0 0-2h-40.206c-4.033-21.599-10.86-41.215-19.806-57.703a94.562 94.562 0 0 1 22.557-5.14 1 1 0 0 0-.202-1.989 96.512 96.512 0 0 0-23.332 5.356c-3.879-6.934-8.14-13.292-12.728-18.985-15.873-19.692-35.738-31.491-57.38-31.491Z" fill="#B1B6B9"/><path fill-rule="evenodd" clip-rule="evenodd" d="M619.534 59.766h18.1a11.583 11.583 0 0 1 11.562 11.562v27.096a11.566 11.566 0 0 1-11.564 11.555h-4.763v18.868h-2v-18.868h-4.571v27.763h-2v-27.763h-4.763a11.555 11.555 0 0 1-11.555-11.555V71.33a11.566 11.566 0 0 1 11.554-11.564Zm18.097 2h-18.096a9.564 9.564 0 0 0-9.555 9.564v27.094a9.557 9.557 0 0 0 9.555 9.555h18.097a9.565 9.565 0 0 0 9.564-9.556V71.331a9.585 9.585 0 0 0-9.565-9.565Z" fill="#B1B6B9"/><path d="M1057.6 178.558h-18.1a10.563 10.563 0 0 1-9.76-6.514c-.53-1.281-.8-2.654-.8-4.041v-27.095c0-2.801 1.11-5.488 3.09-7.469a10.566 10.566 0 0 1 7.47-3.094h18.1a10.559 10.559 0 0 1 10.55 10.563v27.095a10.55 10.55 0 0 1-10.55 10.555Zm-12.34.579v33.283m6.58-33.283v33.657" stroke="#B1B6B9" stroke-width="2" stroke-linejoin="round"/><path d="M903 79.041v17.11m6.571-17.11v16.923m-5.235-75.486h3.703a17.875 17.875 0 0 1 17.876 17.875v21.809a17.877 17.877 0 0 1-17.876 17.875h-3.703a17.876 17.876 0 0 1-17.875-17.875V38.37a17.867 17.867 0 0 1 11.031-16.53 17.869 17.869 0 0 1 6.844-1.362v0ZM795.269 188.262v24.949m6.572-24.949v24.762m-5.235-83.326h3.703a17.876 17.876 0 0 1 17.875 17.876v21.799a17.876 17.876 0 0 1-17.875 17.876h-3.703a17.872 17.872 0 0 1-12.64-5.236 17.872 17.872 0 0 1-5.236-12.64v-21.782a17.884 17.884 0 0 1 5.23-12.651 17.878 17.878 0 0 1 12.646-5.242v0Zm598.594 94.434 32.8-36.381a5.375 5.375 0 0 1 2.16-1.375c.81-.277 1.69-.35 2.54-.213a5.338 5.338 0 0 1 3.98 2.975l2.41 5.048a5.338 5.338 0 0 0 3.35 2.843v0c2.07.589 4.23.725 6.36.401a14.971 14.971 0 0 0 5.94-2.282 14.97 14.97 0 0 0 4.45-4.549 14.936 14.936 0 0 0 2.15-5.989l.71-5.405c.06-.531.21-1.048.44-1.532l16.71-36.365c.3-.64.72-1.214 1.24-1.689a5.374 5.374 0 0 1 1.8-1.081 5.37 5.37 0 0 1 2.08-.303c.7.037 1.39.214 2.03.52l7.54 3.575a12.03 12.03 0 0 0 5.18 1.175c1.97 0 3.92-.488 5.67-1.422a12.045 12.045 0 0 0 4.32-3.933l.44-.664a11.774 11.774 0 0 0 1.85-4.622l2.71-15.747a5.297 5.297 0 0 1 1.35-2.716 5.307 5.307 0 0 1 2.61-1.54l2.66-.664a5.35 5.35 0 0 0 3.98-4.384l3.49-23.094a5.43 5.43 0 0 1 .85-2.194 5.259 5.259 0 0 1 1.71-1.62l6.81-3.949a5.333 5.333 0 0 0 2.19-2.434v0a5.37 5.37 0 0 1 2-2.324 5.334 5.334 0 0 1 5.87.076 5.307 5.307 0 0 1 1.94 2.375l8.23 19.86c.15.37.26.755.33 1.148l2.64 15.416a17.678 17.678 0 0 0 4.69 9.228 17.672 17.672 0 0 0 9.07 5.005v0c.79.168 1.53.516 2.17 1.016.64.5 1.15 1.14 1.5 1.869l21.28 43.77c.21.432.36.89.45 1.362l7.01 38.058m-10.21-45.855 9.84-15.024c.39-.6.9-1.114 1.5-1.513a5.251 5.251 0 0 1 1.97-.807c.7-.135 1.43-.126 2.13.026.7.151 1.36.442 1.95.855l4.95 3.482a5.344 5.344 0 0 0 7.5-1.373 5.34 5.34 0 0 0 .91-2.645l1.29-19.953a5.3 5.3 0 0 1 1.6-3.481l10.03-9.781a5.332 5.332 0 0 1 2.25-1.311 5.334 5.334 0 0 1 2.6-.093l1.83.4c1.32.28 2.69.05 3.85-.643a5.313 5.313 0 0 0 2.39-3.094l10.69-36.807a5.31 5.31 0 0 1 1.59-2.518c.77-.671 1.7-1.11 2.71-1.268a5.31 5.31 0 0 1 2.95.38 5.373 5.373 0 0 1 2.3 1.908l1.1 1.643a5.36 5.36 0 0 0 2.02 1.776c.82.41 1.72.605 2.63.565h.51a5.338 5.338 0 0 1 5.48 4.375l2.5 13.756a18.98 18.98 0 0 0 4.55 9.287 18.988 18.988 0 0 0 8.74 5.533v0c.87.264 1.67.748 2.31 1.404l18.01 18.531" stroke="#B1B6B9" stroke-width="2" stroke-linecap="round" stroke-linejoin="round"/><path d="m1493.89 142.33 14.92 8.265a88.644 88.644 0 0 1 32.63 31.215c4.97 8.103 9.59 15.722 9.79 16.292" stroke="#B1B6B9" stroke-width="2" stroke-linecap="round" stroke-linejoin="round"/><path d="M1654.2 111.021a1 1 0 1 0-1.82-.832l1.82.832Zm-4.7 7.858.91.416-.91-.416Zm-9.28 58.07.83.555-.83-.555Zm12.16-66.76-3.79 8.274 1.82.832 3.79-8.274-1.82-.832Zm-3.79 8.273a43.445 43.445 0 0 0-3.07 26.714l1.96-.398a41.37 41.37 0 0 1 2.93-25.483l-1.82-.833Zm-3.07 26.714a41.577 41.577 0 0 1 .05 16.221l1.96.386a43.637 43.637 0 0 0-.05-17.004l-1.96.397Zm.05 16.221a41.556 41.556 0 0 1-6.19 14.997l1.67 1.11a43.645 43.645 0 0 0 6.48-15.721l-1.96-.386Zm-6.19 14.997-11.06 16.573 1.66 1.111 11.07-16.574-1.67-1.11Z" fill="#B1B6B9"/><path d="m1672.79 209.346 20.12-24.685a37.645 37.645 0 0 0 7.45-14.947l3.95-16.114a33.216 33.216 0 0 1 10.32-17.024l22.86-20.098.29-.238 7.76-5.891a12.006 12.006 0 0 1 4.46-2.119c1.62-.391 3.3-.444 4.94-.155 1.64.29 3.2.915 4.59 1.837a12.26 12.26 0 0 1 3.47 3.519l23.77 36.934a5.353 5.353 0 0 0 2.78 2.162l41.23 13.952c1.32.45 2.42 1.4 3.05 2.647l20.3 42.425" stroke="#B1B6B9" stroke-width="2" stroke-linecap="round" stroke-linejoin="round"/><path d="M1808.5 158.933c-.85-.596-11.23-4.044-20.78-7.151a52.09 52.09 0 0 1-26.33-19.237L1761 132m54.57 29.125 9.84-16.497a5.242 5.242 0 0 1 2.1-1.995 5.222 5.222 0 0 1 2.85-.558v0c2.33.223 4.68-.125 6.84-1.015 2.17-.89 4.08-2.295 5.58-4.093l28.81-34.789a20.268 20.268 0 0 1 5.31-4.52v0a20.134 20.134 0 0 1 13.32-2.54c4.6.718 8.81 3.009 11.92 6.481l23.29 26.047a53.493 53.493 0 0 0 20.99 14.369 53.386 53.386 0 0 1 18.52 11.793 53.368 53.368 0 0 1 12.2 18.255l5.46 13.62a54.678 54.678 0 0 0 2.33 5.03l17.68 33.462" stroke="#B1B6B9" stroke-width="2" stroke-linecap="round" stroke-linejoin="round"/><path d="m1925.46 127.646 13.31 20.574a26.742 26.742 0 0 1 4.02 10.689c.56 3.81.29 7.696-.79 11.392v0a26.84 26.84 0 0 0 .39 16.252 26.875 26.875 0 0 0 9.71 13.039l14.17 10.214" stroke="#B1B6B9" stroke-width="2" stroke-linecap="round" stroke-linejoin="round"/><path fill-rule="evenodd" clip-rule="evenodd" d="M36.056 114a1 1 0 0 0-2 0v6.071a5.616 5.616 0 0 0-.713-.533l-.012-.007a13.13 13.13 0 0 0-2.323-1.123v-3.71a1 1 0 1 0-2 0v4.296a1.002 1.002 0 0 0-.008.13v23.504c.003 1.302.38 2.34.99 3.14.602.788 1.385 1.288 2.118 1.606a7.71 7.71 0 0 0 1.897.533v64.87a1 1 0 0 0 2 0V147.91c.52-.078 1.21-.23 1.914-.536.733-.318 1.515-.818 2.115-1.607.61-.801.985-1.839.985-3.141v-27.928a1 1 0 1 0-2 0v3.707c-.812.297-1.593.674-2.33 1.126l-.014.008a5.81 5.81 0 0 0-.619.453V114Zm.619 21.151c-.23.145-.448.306-.653.481v-3.492a3.708 3.708 0 0 1 1.717-3.127c.412-.251.84-.476 1.28-.671v5.677c-.81.298-1.588.674-2.327 1.121l-.017.011Zm2.344-8.966v-5.624c-.44.196-.868.42-1.28.672a3.707 3.707 0 0 0-1.717 3.126v3.442c.205-.175.423-.336.653-.481l.013-.009c.738-.451 1.52-.829 2.33-1.126Zm-5.692 8.955A13.525 13.525 0 0 0 31 134.019v-5.652c.44.196.869.42 1.281.672a3.71 3.71 0 0 1 1.724 3.104v3.495a5.69 5.69 0 0 0-.663-.488l-.015-.01Zm.678-7.308v-3.472a3.707 3.707 0 0 0-1.724-3.127 11.23 11.23 0 0 0-1.281-.672v5.649c.812.298 1.592.675 2.33 1.127l.013.007c.233.147.454.31.662.488Zm0 18.045a5.535 5.535 0 0 1-1.101-.337c-.517-.225-.985-.542-1.324-.985-.328-.43-.578-1.036-.58-1.93v-6.449c.44.196.87.42 1.283.67a3.703 3.703 0 0 1 1.722 3.125v5.906Zm2.017 0c.34-.068.724-.174 1.1-.337.517-.225.984-.542 1.32-.984.328-.429.577-1.035.577-1.93v-6.45c-.44.196-.869.42-1.282.669a3.711 3.711 0 0 0-1.715 3.126v5.906ZM70.056 114a1 1 0 0 0-2 0v6.071a5.616 5.616 0 0 0-.713-.533l-.012-.007a13.13 13.13 0 0 0-2.323-1.123v-3.71a1 1 0 1 0-2 0v4.296a1.002 1.002 0 0 0-.008.13v23.504c.002 1.302.38 2.34.99 3.14.602.788 1.384 1.288 2.118 1.606a7.71 7.71 0 0 0 1.897.533v64.87a1 1 0 0 0 2 0V147.91c.52-.078 1.21-.23 1.914-.536.733-.318 1.515-.818 2.115-1.607.61-.801.985-1.839.985-3.141v-27.928a1 1 0 1 0-2 0v3.707c-.812.297-1.593.674-2.33 1.126l-.014.008a5.81 5.81 0 0 0-.619.453V114Zm.619 21.151c-.23.145-.448.306-.653.481v-3.492a3.708 3.708 0 0 1 1.717-3.127c.412-.251.84-.476 1.28-.671v5.677c-.81.298-1.588.674-2.327 1.121l-.017.011Zm2.344-8.966v-5.624c-.44.196-.868.42-1.28.672a3.707 3.707 0 0 0-1.717 3.126v3.442c.205-.175.423-.336.653-.481l.013-.009c.739-.451 1.52-.829 2.33-1.126Zm-5.692 8.955A13.525 13.525 0 0 0 65 134.019v-5.652c.44.196.869.42 1.281.672a3.71 3.71 0 0 1 1.724 3.104v3.495a5.69 5.69 0 0 0-.662-.488l-.016-.01Zm.678-7.308v-3.472a3.707 3.707 0 0 0-1.724-3.127 11.23 11.23 0 0 0-1.281-.672v5.649c.812.298 1.592.675 2.33 1.127l.013.007c.233.147.454.31.662.488Zm0 18.045a5.535 5.535 0 0 1-1.101-.337c-.517-.225-.985-.542-1.323-.985-.329-.43-.58-1.036-.581-1.93v-6.449c.44.196.87.42 1.283.67a3.703 3.703 0 0 1 1.722 3.125v5.906Zm2.017 0c.34-.068.724-.174 1.1-.337.516-.225.984-.542 1.32-.984.328-.429.577-1.035.577-1.93v-6.45c-.44.196-.869.42-1.282.669a3.711 3.711 0 0 0-1.715 3.126v5.906ZM104.056 114a1 1 0 1 0-2 0v6.071a5.569 5.569 0 0 0-.714-.533h.001l-.012-.007a13.135 13.135 0 0 0-2.323-1.123v-3.71a1 1 0 1 0-2 0v4.296a1.002 1.002 0 0 0-.008.13v23.504c.002 1.302.38 2.34.99 3.14.602.788 1.385 1.288 2.118 1.606a7.71 7.71 0 0 0 1.897.533v64.87a1 1 0 0 0 2 0V147.91c.52-.078 1.21-.23 1.914-.536.733-.318 1.515-.818 2.115-1.607.61-.801.985-1.839.985-3.141v-27.928a1 1 0 1 0-2 0v3.707a13.07 13.07 0 0 0-2.331 1.126l-.013.008a5.78 5.78 0 0 0-.619.453V114Zm.619 21.151c-.23.145-.448.306-.653.481v-3.492a3.706 3.706 0 0 1 1.717-3.127c.412-.251.839-.476 1.28-.671v5.677a13.54 13.54 0 0 0-2.327 1.121l-.017.011Zm2.344-8.966v-5.624c-.441.196-.868.42-1.28.672a3.706 3.706 0 0 0-1.717 3.126v3.442c.205-.175.423-.336.653-.481l.013-.009a13.106 13.106 0 0 1 2.331-1.126Zm-5.692 8.955A13.54 13.54 0 0 0 99 134.019v-5.652c.44.196.869.42 1.281.672a3.705 3.705 0 0 1 1.724 3.104v3.495a5.602 5.602 0 0 0-.663-.488l-.015-.01Zm.678-7.308v-3.472a3.71 3.71 0 0 0-1.724-3.127 11.23 11.23 0 0 0-1.281-.672v5.649c.812.298 1.592.675 2.331 1.127l.012.007h-.001c.234.147.455.31.663.488Zm0 18.045a5.529 5.529 0 0 1-1.101-.337c-.517-.225-.985-.542-1.323-.985-.329-.43-.58-1.036-.581-1.93v-6.449c.44.196.87.42 1.283.67a3.7 3.7 0 0 1 1.722 3.125v5.906Zm2.017 0c.34-.068.724-.174 1.1-.337.517-.225.984-.542 1.321-.984.326-.429.576-1.035.576-1.93v-6.45c-.441.196-.869.42-1.282.669a3.705 3.705 0 0 0-1.715 3.126v5.906ZM87.056 131a1 1 0 0 0-2 0v6.071a5.616 5.616 0 0 0-.713-.533l-.012-.007a13.13 13.13 0 0 0-2.323-1.123v-3.71a1 1 0 1 0-2 0v4.296a1.002 1.002 0 0 0-.008.13v23.504c.002 1.302.38 2.34.99 3.14.602.788 1.385 1.288 2.118 1.606a7.71 7.71 0 0 0 1.897.533v48.083a1 1 0 0 0 2 0v-48.08c.52-.078 1.21-.23 1.914-.536.733-.318 1.515-.818 2.115-1.607.61-.801.985-1.839.985-3.141v-27.928a1 1 0 1 0-2 0v3.707c-.812.297-1.593.674-2.33 1.126l-.014.008a5.81 5.81 0 0 0-.619.453V131Zm.619 21.151c-.23.145-.448.306-.653.481v-3.492a3.708 3.708 0 0 1 1.717-3.127c.412-.251.84-.476 1.28-.671v5.677c-.81.298-1.588.674-2.327 1.121l-.017.011Zm2.344-8.966v-5.624c-.44.196-.868.42-1.28.672a3.707 3.707 0 0 0-1.717 3.126v3.442c.205-.175.423-.336.653-.481l.013-.009c.739-.451 1.52-.829 2.33-1.126Zm-5.692 8.955A13.53 13.53 0 0 0 82 151.019v-5.652c.44.196.869.42 1.281.672a3.71 3.71 0 0 1 1.724 3.104v3.495a5.69 5.69 0 0 0-.662-.488l-.016-.01Zm.678-7.308v-3.472a3.707 3.707 0 0 0-1.724-3.127 11.23 11.23 0 0 0-1.281-.672v5.649c.812.298 1.592.675 2.33 1.127l.013.007c.233.147.454.31.662.488Zm0 18.045a5.535 5.535 0 0 1-1.101-.337c-.517-.225-.985-.542-1.323-.985-.329-.43-.58-1.036-.581-1.93v-6.449c.44.196.87.42 1.283.67a3.703 3.703 0 0 1 1.722 3.125v5.906Zm2.017 0c.34-.068.724-.174 1.1-.337.516-.225.984-.542 1.32-.984.328-.429.577-1.035.577-1.93v-6.45c-.44.196-.869.42-1.282.669a3.712 3.712 0 0 0-1.715 3.126v5.906ZM120.056 130a1 1 0 0 1 1 1v5.992a5.78 5.78 0 0 1 .619-.453l.013-.008a13.07 13.07 0 0 1 2.331-1.126v-3.707a1 1 0 1 1 2 0v27.928c0 1.302-.375 2.34-.985 3.141-.6.789-1.382 1.289-2.115 1.607a7.719 7.719 0 0 1-1.914.536v48.08a1 1 0 0 1-2 0v-48.083a7.71 7.71 0 0 1-1.897-.533c-.734-.318-1.516-.818-2.117-1.606-.611-.8-.988-1.838-.991-3.14v-23.504c0-.044.003-.087.009-.13v-4.296a1 1 0 1 1 2 0v3.71c.808.297 1.586.673 2.322 1.123l.012.007h-.001c.253.159.491.337.714.533V131a1 1 0 0 1 1-1Zm.966 22.632c.205-.175.423-.336.653-.481l.017-.011a13.54 13.54 0 0 1 2.327-1.121v-5.677c-.441.195-.868.42-1.28.671a3.706 3.706 0 0 0-1.717 3.127v3.492Zm2.997-15.071v5.624c-.812.297-1.593.675-2.331 1.126l-.013.009c-.23.145-.448.306-.653.481v-3.442a3.706 3.706 0 0 1 1.717-3.126c.412-.252.839-.476 1.28-.672ZM116 151.019a13.54 13.54 0 0 1 2.327 1.121l.015.01c.234.147.455.31.663.488v-3.495a3.704 3.704 0 0 0-1.724-3.104c-.412-.252-.84-.476-1.281-.672v5.652Zm3.005-9.659v3.472a5.602 5.602 0 0 0-.663-.488h.001l-.012-.007A13.144 13.144 0 0 0 116 143.21v-5.649c.441.196.869.421 1.281.672a3.703 3.703 0 0 1 1.724 3.127Zm-1.101 21.18c.377.163.761.269 1.101.337v-5.906a3.71 3.71 0 0 0-1.722-3.125 11.58 11.58 0 0 0-1.283-.67v6.449c.002.894.252 1.5.581 1.93.338.443.806.76 1.323.985Zm4.218 0c-.376.163-.76.269-1.1.337v-5.906a3.705 3.705 0 0 1 1.715-3.126 11.64 11.64 0 0 1 1.282-.669v6.45c0 .895-.25 1.501-.576 1.93-.337.442-.804.759-1.321.984ZM52.056 130a1 1 0 0 1 1 1v5.992a5.81 5.81 0 0 1 .619-.453l.013-.008c.738-.452 1.52-.829 2.33-1.126v-3.707a1 1 0 1 1 2 0v27.928c0 1.302-.374 2.34-.984 3.141-.6.789-1.382 1.289-2.115 1.607a7.721 7.721 0 0 1-1.914.536v48.08a1 1 0 0 1-2 0v-48.083a7.713 7.713 0 0 1-1.897-.533c-.733-.318-1.516-.818-2.117-1.606-.611-.8-.989-1.838-.991-3.14v-23.504c0-.044.003-.087.008-.13v-4.296a1 1 0 1 1 2 0v3.71a13.13 13.13 0 0 1 2.323 1.123l.011.007c.253.159.491.337.714.533V131a1 1 0 0 1 1-1Zm.966 22.632c.205-.175.423-.336.653-.481l.017-.011a13.526 13.526 0 0 1 2.327-1.121v-5.677c-.44.195-.868.42-1.28.671a3.707 3.707 0 0 0-1.717 3.127v3.492Zm2.997-15.071v5.624c-.812.297-1.593.675-2.33 1.126l-.014.009c-.23.145-.448.306-.653.481v-3.442a3.707 3.707 0 0 1 1.717-3.126c.412-.252.84-.476 1.28-.672ZM48 151.019a13.54 13.54 0 0 1 2.327 1.121l.016.01c.233.147.454.31.662.488v-3.495a3.705 3.705 0 0 0-1.724-3.104c-.412-.252-.84-.476-1.281-.672v5.652Zm3.005-9.659v3.472a5.69 5.69 0 0 0-.663-.488l-.011-.007A13.135 13.135 0 0 0 48 143.21v-5.649c.44.196.869.421 1.281.672a3.71 3.71 0 0 1 1.724 3.127Zm-1.101 21.18c.377.163.761.269 1.101.337v-5.906a3.707 3.707 0 0 0-1.722-3.125 11.58 11.58 0 0 0-1.283-.67v6.449c.002.894.252 1.5.58 1.93.339.443.807.76 1.324.985Zm4.218 0c-.376.163-.76.269-1.1.337v-5.906a3.708 3.708 0 0 1 1.715-3.126 11.64 11.64 0 0 1 1.282-.669v6.45c0 .895-.25 1.501-.576 1.93-.337.442-.804.759-1.32.984ZM18.056 130a1 1 0 0 1 1 1v5.992a5.81 5.81 0 0 1 .619-.453l.013-.008c.739-.452 1.52-.829 2.33-1.126v-3.707a1 1 0 1 1 2 0v27.928c0 1.302-.374 2.34-.984 3.141-.6.789-1.382 1.289-2.115 1.607a7.721 7.721 0 0 1-1.914.536v48.08a1 1 0 0 1-2 0v-48.083a7.713 7.713 0 0 1-1.897-.533c-.734-.318-1.516-.818-2.117-1.606-.611-.8-.989-1.838-.991-3.14v-23.504c0-.044.003-.087.008-.13v-4.296a1 1 0 1 1 2 0v3.71a13.13 13.13 0 0 1 2.323 1.123l.012.007c.252.159.49.337.713.533V131a1 1 0 0 1 1-1Zm.966 22.632c.205-.175.423-.336.653-.481l.017-.011a13.526 13.526 0 0 1 2.327-1.121v-5.677c-.44.195-.868.42-1.28.671a3.707 3.707 0 0 0-1.717 3.127v3.492Zm2.997-15.071v5.624c-.812.297-1.592.675-2.33 1.126l-.014.009c-.23.145-.448.306-.653.481v-3.442a3.707 3.707 0 0 1 1.717-3.126c.412-.252.84-.476 1.28-.672ZM14 151.019a13.54 13.54 0 0 1 2.327 1.121l.015.01c.234.147.455.31.663.488v-3.495a3.705 3.705 0 0 0-1.724-3.104c-.412-.252-.84-.476-1.281-.672v5.652Zm3.005-9.659v3.472a5.69 5.69 0 0 0-.662-.488l-.012-.007A13.135 13.135 0 0 0 14 143.21v-5.649c.44.196.869.421 1.281.672a3.71 3.71 0 0 1 1.724 3.127Zm-1.101 21.18c.377.163.761.269 1.101.337v-5.906a3.707 3.707 0 0 0-1.722-3.125 11.58 11.58 0 0 0-1.283-.67v6.449c.002.894.252 1.5.58 1.93.339.443.807.76 1.324.985Zm4.218 0c-.376.163-.76.269-1.1.337v-5.906a3.708 3.708 0 0 1 1.715-3.126 11.64 11.64 0 0 1 1.282-.669v6.45c0 .895-.25 1.501-.576 1.93-.337.442-.805.759-1.32.984ZM3008.06 114c0-.552-.45-1-1-1-.56 0-1 .448-1 1v6.071a6.432 6.432 0 0 0-.72-.533l-.01-.007c-.74-.45-1.51-.826-2.32-1.123v-3.71a1.001 1.001 0 0 0-2 0v4.296c-.01.043-.01.086-.01.13v23.504c0 1.302.38 2.34.99 3.14.6.788 1.38 1.288 2.12 1.606.69.302 1.38.455 1.9.533v64.87c0 .552.44 1 1 1 .55 0 1-.448 1-1V147.91c.51-.078 1.21-.23 1.91-.536.73-.318 1.51-.818 2.11-1.607.61-.801.99-1.839.99-3.141v-27.928a1.001 1.001 0 0 0-2 0v3.707c-.81.297-1.59.674-2.33 1.126l-.02.008c-.21.138-.42.289-.61.453V114Zm.61 21.151c-.22.145-.44.306-.65.481v-3.492c0-.625.16-1.24.46-1.787.3-.545.73-1.006 1.26-1.34.41-.251.84-.476 1.28-.671v5.677c-.81.298-1.59.674-2.33 1.121l-.02.011Zm2.35-8.966v-5.624c-.44.196-.87.42-1.28.672-.53.334-.96.795-1.26 1.34-.3.547-.46 1.162-.46 1.786v3.442c.21-.175.43-.336.65-.481l.02-.009c.74-.451 1.52-.829 2.33-1.126Zm-5.69 8.955c-.74-.447-1.52-.823-2.33-1.121v-5.652c.44.196.87.42 1.28.672.52.332.96.789 1.26 1.331.3.542.46 1.152.47 1.773v3.495a5.369 5.369 0 0 0-.67-.488l-.01-.01Zm.68-7.308v-3.472a3.73 3.73 0 0 0-.47-1.787 3.664 3.664 0 0 0-1.26-1.34c-.41-.251-.84-.476-1.28-.672v5.649c.81.298 1.59.675 2.33 1.127l.01.007c.24.147.46.31.67.488Zm0 18.045a5.662 5.662 0 0 1-1.11-.337c-.51-.225-.98-.542-1.32-.985-.33-.43-.58-1.036-.58-1.93v-6.449c.44.196.87.42 1.28.67.53.333.96.793 1.26 1.338.31.547.46 1.162.47 1.787v5.906Zm2.01 0c.34-.068.73-.174 1.1-.337.52-.225.99-.542 1.32-.984.33-.429.58-1.035.58-1.93v-6.45c-.44.196-.87.42-1.28.669-.53.334-.96.795-1.26 1.339a3.72 3.72 0 0 0-.46 1.787v5.906ZM3042.06 114c0-.552-.45-1-1-1-.56 0-1 .448-1 1v6.071a6.432 6.432 0 0 0-.72-.533l-.01-.007c-.74-.45-1.51-.826-2.32-1.123v-3.71a1.001 1.001 0 0 0-2 0v4.296c-.01.043-.01.086-.01.13v23.504c0 1.302.38 2.34.99 3.14.6.788 1.38 1.288 2.12 1.606.69.302 1.38.455 1.9.533v64.87c0 .552.44 1 1 1 .55 0 1-.448 1-1V147.91c.51-.078 1.21-.23 1.91-.536.73-.318 1.51-.818 2.11-1.607.61-.801.99-1.839.99-3.141v-27.928a1.001 1.001 0 0 0-2 0v3.707c-.81.297-1.59.674-2.33 1.126l-.02.008c-.21.138-.42.289-.61.453V114Zm.61 21.151c-.22.145-.44.306-.65.481v-3.492c0-.625.16-1.24.46-1.787.3-.545.73-1.006 1.26-1.34.41-.251.84-.476 1.28-.671v5.677c-.81.298-1.59.674-2.33 1.121l-.02.011Zm2.35-8.966v-5.624c-.44.196-.87.42-1.28.672-.53.334-.96.795-1.26 1.34-.3.547-.46 1.162-.46 1.786v3.442c.21-.175.43-.336.65-.481l.02-.009c.74-.451 1.52-.829 2.33-1.126Zm-5.69 8.955c-.74-.447-1.52-.823-2.33-1.121v-5.652c.44.196.87.42 1.28.672.52.332.96.789 1.26 1.331.3.542.46 1.152.47 1.773v3.495a5.369 5.369 0 0 0-.67-.488l-.01-.01Zm.68-7.308v-3.472a3.73 3.73 0 0 0-.47-1.787 3.664 3.664 0 0 0-1.26-1.34c-.41-.251-.84-.476-1.28-.672v5.649c.81.298 1.59.675 2.33 1.127l.01.007c.24.147.46.31.67.488Zm0 18.045a5.662 5.662 0 0 1-1.11-.337c-.51-.225-.98-.542-1.32-.985-.33-.43-.58-1.036-.58-1.93v-6.449c.44.196.87.42 1.28.67.53.333.96.793 1.26 1.338.31.547.46 1.162.47 1.787v5.906Zm2.01 0c.34-.068.73-.174 1.1-.337.52-.225.99-.542 1.32-.984.33-.429.58-1.035.58-1.93v-6.45c-.44.196-.87.42-1.28.669-.53.334-.96.795-1.26 1.339a3.72 3.72 0 0 0-.46 1.787v5.906ZM3076.06 114c0-.552-.45-1-1-1-.56 0-1 .448-1 1v6.071a6.432 6.432 0 0 0-.72-.533l-.01-.007c-.74-.45-1.51-.826-2.32-1.123v-3.71a1.001 1.001 0 0 0-2 0v4.296c-.01.043-.01.086-.01.13v23.504c0 1.302.38 2.34.99 3.14.6.788 1.38 1.288 2.12 1.606.69.302 1.38.455 1.9.533v64.87c0 .552.44 1 1 1 .55 0 1-.448 1-1V147.91c.51-.078 1.21-.23 1.91-.536.73-.318 1.51-.818 2.11-1.607.61-.801.99-1.839.99-3.141v-27.928a1.001 1.001 0 0 0-2 0v3.707c-.81.297-1.59.674-2.33 1.126l-.02.008c-.21.138-.42.289-.61.453V114Zm.61 21.151c-.22.145-.44.306-.65.481v-3.492c0-.625.16-1.24.46-1.787.3-.545.73-1.006 1.26-1.34.41-.251.84-.476 1.28-.671v5.677c-.81.298-1.59.674-2.33 1.121l-.02.011Zm2.35-8.966v-5.624c-.44.196-.87.42-1.28.672-.53.334-.96.795-1.26 1.34-.3.547-.46 1.162-.46 1.786v3.442c.21-.175.43-.336.65-.481l.02-.009c.74-.451 1.52-.829 2.33-1.126Zm-5.69 8.955c-.74-.447-1.52-.823-2.33-1.121v-5.652c.44.196.87.42 1.28.672.52.332.96.789 1.26 1.331.3.542.46 1.152.47 1.773v3.495a5.369 5.369 0 0 0-.67-.488l-.01-.01Zm.68-7.308v-3.472a3.73 3.73 0 0 0-.47-1.787 3.664 3.664 0 0 0-1.26-1.34c-.41-.251-.84-.476-1.28-.672v5.649c.81.298 1.59.675 2.33 1.127l.01.007c.24.147.46.31.67.488Zm0 18.045a5.662 5.662 0 0 1-1.11-.337c-.51-.225-.98-.542-1.32-.985-.33-.43-.58-1.036-.58-1.93v-6.449c.44.196.87.42 1.28.67.53.333.96.793 1.26 1.338.31.547.46 1.162.47 1.787v5.906Zm2.01 0c.34-.068.73-.174 1.1-.337.52-.225.99-.542 1.32-.984.33-.429.58-1.035.58-1.93v-6.45c-.44.196-.87.42-1.28.669-.53.334-.96.795-1.26 1.339a3.72 3.72 0 0 0-.46 1.787v5.906ZM3059.06 131c0-.552-.45-1-1-1-.56 0-1 .448-1 1v6.071a6.432 6.432 0 0 0-.72-.533l-.01-.007c-.74-.45-1.51-.826-2.32-1.123v-3.71a1.001 1.001 0 0 0-2 0v4.296c-.01.043-.01.086-.01.13v23.504c0 1.302.38 2.34.99 3.14.6.788 1.38 1.288 2.12 1.606.69.302 1.38.455 1.9.533v48.083c0 .552.44 1 1 1 .55 0 1-.448 1-1v-48.08c.51-.078 1.21-.23 1.91-.536.73-.318 1.51-.818 2.11-1.607.61-.801.99-1.839.99-3.141v-27.928a1.001 1.001 0 0 0-2 0v3.707c-.81.297-1.59.674-2.33 1.126l-.02.008c-.21.138-.42.289-.61.453V131Zm.61 21.151c-.22.145-.44.306-.65.481v-3.492c0-.625.16-1.24.46-1.787.3-.545.73-1.006 1.26-1.34.41-.251.84-.476 1.28-.671v5.677c-.81.298-1.59.674-2.33 1.121l-.02.011Zm2.35-8.966v-5.624c-.44.196-.87.42-1.28.672-.53.334-.96.795-1.26 1.34-.3.547-.46 1.162-.46 1.786v3.442c.21-.175.43-.336.65-.481l.02-.009c.74-.451 1.52-.829 2.33-1.126Zm-5.69 8.955c-.74-.447-1.52-.823-2.33-1.121v-5.652c.44.196.87.42 1.28.672.52.332.96.789 1.26 1.331.3.542.46 1.152.47 1.773v3.495a5.369 5.369 0 0 0-.67-.488l-.01-.01Zm.68-7.308v-3.472a3.73 3.73 0 0 0-.47-1.787 3.664 3.664 0 0 0-1.26-1.34c-.41-.251-.84-.476-1.28-.672v5.649c.81.298 1.59.675 2.33 1.127l.01.007c.24.147.46.31.67.488Zm0 18.045a5.662 5.662 0 0 1-1.11-.337c-.51-.225-.98-.542-1.32-.985-.33-.43-.58-1.036-.58-1.93v-6.449c.44.196.87.42 1.28.67.53.333.96.793 1.26 1.338.31.547.46 1.162.47 1.787v5.906Zm2.01 0c.34-.068.73-.174 1.1-.337.52-.225.99-.542 1.32-.984.33-.429.58-1.035.58-1.93v-6.45c-.44.196-.87.42-1.28.669-.53.334-.96.795-1.26 1.339a3.72 3.72 0 0 0-.46 1.787v5.906ZM3092.06 130c.55 0 1 .448 1 1v5.992c.19-.164.4-.315.61-.453l.02-.008c.74-.452 1.52-.829 2.33-1.126v-3.707a1.001 1.001 0 0 1 2 0v27.928c0 1.302-.38 2.34-.99 3.141-.6.789-1.38 1.289-2.11 1.607-.7.306-1.4.458-1.91.536v48.08c0 .552-.45 1-1 1-.56 0-1-.448-1-1v-48.083a7.623 7.623 0 0 1-1.9-.533c-.74-.318-1.52-.818-2.12-1.606-.61-.8-.99-1.838-.99-3.14v-23.504c0-.044 0-.087.01-.13v-4.296a1.001 1.001 0 0 1 2 0v3.71c.81.297 1.58.673 2.32 1.123l.01.007c.25.159.49.337.72.533V131c0-.552.44-1 1-1Zm.96 22.632c.21-.175.43-.336.65-.481l.02-.011c.74-.447 1.52-.823 2.33-1.121v-5.677c-.44.195-.87.42-1.28.671-.53.334-.96.795-1.26 1.34a3.72 3.72 0 0 0-.46 1.787v3.492Zm3-15.071v5.624c-.81.297-1.59.675-2.33 1.126l-.02.009c-.22.145-.44.306-.65.481v-3.442c0-.624.16-1.239.46-1.786.3-.545.73-1.006 1.26-1.34.41-.252.84-.476 1.28-.672Zm-8.02 13.458c.81.298 1.59.674 2.33 1.121l.01.01c.24.147.46.31.67.488v-3.495a3.788 3.788 0 0 0-.47-1.773c-.3-.542-.74-.999-1.26-1.331-.41-.252-.84-.476-1.28-.672v5.652Zm3.01-9.659v3.472a5.369 5.369 0 0 0-.67-.488l-.01-.007c-.74-.452-1.52-.829-2.33-1.127v-5.649c.44.196.87.421 1.28.672.53.334.96.794 1.26 1.34.31.547.46 1.162.47 1.787Zm-1.11 21.18c.38.163.77.269 1.11.337v-5.906a3.73 3.73 0 0 0-.47-1.787 3.658 3.658 0 0 0-1.26-1.338c-.41-.25-.84-.474-1.28-.67v6.449c0 .894.25 1.5.58 1.93.34.443.81.76 1.32.985Zm4.22 0c-.37.163-.76.269-1.1.337v-5.906c0-.625.16-1.24.46-1.787.3-.544.73-1.005 1.26-1.339.41-.249.84-.473 1.28-.669v6.45c0 .895-.25 1.501-.58 1.93-.33.442-.8.759-1.32.984ZM3024.06 130c.55 0 1 .448 1 1v5.992c.19-.164.4-.315.61-.453l.02-.008c.74-.452 1.52-.829 2.33-1.126v-3.707a1.001 1.001 0 0 1 2 0v27.928c0 1.302-.38 2.34-.99 3.141-.6.789-1.38 1.289-2.11 1.607-.7.306-1.4.458-1.91.536v48.08c0 .552-.45 1-1 1-.56 0-1-.448-1-1v-48.083a7.623 7.623 0 0 1-1.9-.533c-.74-.318-1.52-.818-2.12-1.606-.61-.8-.99-1.838-.99-3.14v-23.504c0-.044 0-.087.01-.13v-4.296a1.001 1.001 0 0 1 2 0v3.71c.81.297 1.58.673 2.32 1.123l.01.007c.25.159.49.337.72.533V131c0-.552.44-1 1-1Zm.96 22.632c.21-.175.43-.336.65-.481l.02-.011c.74-.447 1.52-.823 2.33-1.121v-5.677c-.44.195-.87.42-1.28.671-.53.334-.96.795-1.26 1.34a3.72 3.72 0 0 0-.46 1.787v3.492Zm3-15.071v5.624c-.81.297-1.59.675-2.33 1.126l-.02.009c-.22.145-.44.306-.65.481v-3.442c0-.624.16-1.239.46-1.786.3-.545.73-1.006 1.26-1.34.41-.252.84-.476 1.28-.672Zm-8.02 13.458c.81.298 1.59.674 2.33 1.121l.01.01c.24.147.46.31.67.488v-3.495a3.788 3.788 0 0 0-.47-1.773c-.3-.542-.74-.999-1.26-1.331-.41-.252-.84-.476-1.28-.672v5.652Zm3.01-9.659v3.472a5.369 5.369 0 0 0-.67-.488l-.01-.007c-.74-.452-1.52-.829-2.33-1.127v-5.649c.44.196.87.421 1.28.672.53.334.96.794 1.26 1.34.31.547.46 1.162.47 1.787Zm-1.11 21.18c.38.163.77.269 1.11.337v-5.906a3.73 3.73 0 0 0-.47-1.787 3.658 3.658 0 0 0-1.26-1.338c-.41-.25-.84-.474-1.28-.67v6.449c0 .894.25 1.5.58 1.93.34.443.81.76 1.32.985Zm4.22 0c-.37.163-.76.269-1.1.337v-5.906c0-.625.16-1.24.46-1.787.3-.544.73-1.005 1.26-1.339.41-.249.84-.473 1.28-.669v6.45c0 .895-.25 1.501-.58 1.93-.33.442-.8.759-1.32.984ZM2990.06 130c.55 0 1 .448 1 1v5.992c.19-.164.4-.315.61-.453l.02-.008c.74-.452 1.52-.829 2.33-1.126v-3.707a1.001 1.001 0 0 1 2 0v27.928c0 1.302-.38 2.34-.99 3.141-.6.789-1.38 1.289-2.11 1.607-.7.306-1.4.458-1.91.536v48.08c0 .552-.45 1-1 1-.56 0-1-.448-1-1v-48.083a7.623 7.623 0 0 1-1.9-.533c-.74-.318-1.52-.818-2.12-1.606-.61-.8-.99-1.838-.99-3.14v-23.504c0-.044 0-.087.01-.13v-4.296a1.001 1.001 0 0 1 2 0v3.71c.81.297 1.58.673 2.32 1.123l.01.007c.25.159.49.337.72.533V131c0-.552.44-1 1-1Zm.96 22.632c.21-.175.43-.336.65-.481l.02-.011c.74-.447 1.52-.823 2.33-1.121v-5.677c-.44.195-.87.42-1.28.671-.53.334-.96.795-1.26 1.34a3.72 3.72 0 0 0-.46 1.787v3.492Zm3-15.071v5.624c-.81.297-1.59.675-2.33 1.126l-.02.009c-.22.145-.44.306-.65.481v-3.442c0-.624.16-1.239.46-1.786.3-.545.73-1.006 1.26-1.34.41-.252.84-.476 1.28-.672Zm-8.02 13.458c.81.298 1.59.674 2.33 1.121l.01.01c.24.147.46.31.67.488v-3.495a3.788 3.788 0 0 0-.47-1.773c-.3-.542-.74-.999-1.26-1.331-.41-.252-.84-.476-1.28-.672v5.652Zm3.01-9.659v3.472a5.369 5.369 0 0 0-.67-.488l-.01-.007c-.74-.452-1.52-.829-2.33-1.127v-5.649c.44.196.87.421 1.28.672.53.334.96.794 1.26 1.34.31.547.46 1.162.47 1.787Zm-1.11 21.18c.38.163.77.269 1.11.337v-5.906a3.73 3.73 0 0 0-.47-1.787 3.658 3.658 0 0 0-1.26-1.338c-.41-.25-.84-.474-1.28-.67v6.449c0 .894.25 1.5.58 1.93.34.443.81.76 1.32.985Zm4.22 0c-.37.163-.76.269-1.1.337v-5.906c0-.625.16-1.24.46-1.787.3-.544.73-1.005 1.26-1.339.41-.249.84-.473 1.28-.669v6.45c0 .895-.25 1.501-.58 1.93-.33.442-.8.759-1.32.984Z" fill="#B1B6B9"/></svg>