<svg width="160" height="160" viewBox="0 0 160 160" fill="none" xmlns="http://www.w3.org/2000/svg">
<path d="M139.797 73.1231C139.797 72.7257 139.797 72.3412 139.746 71.9502V71.5721C139.46 67.67 138.09 63.9259 135.79 60.7626C133.491 57.5993 130.353 55.143 126.733 53.6712C128.537 48.2997 129.201 42.6101 128.682 36.9669C128.163 31.3236 126.473 25.8511 123.72 20.8997C120.966 15.9484 117.211 11.6274 112.693 8.21346C108.176 4.79953 102.996 2.36793 97.4862 1.07438C91.976 -0.219169 86.2567 -0.346147 80.6947 0.701576C75.1327 1.7493 69.8505 3.94863 65.1864 7.15871C60.5223 10.3688 56.5791 14.5189 53.6094 19.3432C50.6397 24.1674 48.709 29.5596 47.9408 35.1743C45.0837 35.4649 42.2821 36.1597 39.6199 37.238L39.4471 37.3085C39.1206 37.4431 38.807 37.5777 38.4806 37.7251L37.9365 37.9751L37.3604 38.2571C37.0532 38.4109 36.7524 38.5711 36.4515 38.7314L36.2595 38.8339C30.2475 42.1097 25.497 47.2981 22.7587 53.5793C20.0205 59.8605 19.4506 66.8763 21.1391 73.518C22.8276 80.1598 26.6782 86.0487 32.0825 90.2544C37.4868 94.46 44.1366 96.7424 50.9811 96.741C53.2096 96.7384 55.4311 96.4912 57.6058 96.004L58.0922 95.8886C58.5275 95.7796 58.9563 95.6771 59.3724 95.5553C59.7884 95.4335 60.3197 95.2797 60.7869 95.1195L61.0045 95.0426C62.8297 94.4136 64.593 93.6177 66.2723 92.6648L81.4995 109.431V132.011H95.197V109.431L110.36 92.4212C113.554 93.8308 117.049 94.4201 120.528 94.136C124.007 93.8518 127.36 92.7031 130.283 90.7938C133.207 88.8846 135.609 86.2751 137.271 83.2019C138.933 80.1286 139.804 76.6887 139.803 73.1936V73.1359L139.797 73.1231ZM63.2832 91.2804C63.008 91.4085 62.7391 91.5431 62.4639 91.6649C62.0094 91.8636 61.555 92.0559 61.0878 92.2289L60.6973 92.3763C56.4425 93.9308 51.8756 94.4332 47.3852 93.841C42.8948 93.2488 38.6136 91.5794 34.9058 88.9748C31.198 86.3702 28.1733 82.9075 26.0888 78.8812C24.0043 74.8548 22.9218 70.3839 22.9333 65.8487C22.9581 60.1695 24.6852 54.6286 27.8908 49.9435C31.0964 45.2584 35.6329 41.6449 40.9128 39.571C41.028 39.5261 41.1432 39.4748 41.2648 39.4364L41.7129 39.2761C43.6378 38.5935 45.6319 38.125 47.6591 37.8789V38.7121C47.6591 39.3531 47.6079 39.994 47.6079 40.6349C47.6079 41.2758 47.6079 41.7565 47.6463 42.3141V42.8653C47.6463 43.237 47.6847 43.6088 47.7167 43.9741C47.7167 44.1984 47.7615 44.4163 47.7807 44.615C47.8191 44.9419 47.8447 45.2559 47.8896 45.5956C47.9344 45.9353 47.9536 46.0699 47.9856 46.3006C48.0176 46.5314 48.0752 46.9415 48.1264 47.23C48.1776 47.5184 48.2096 47.7106 48.2544 47.9542C48.2992 48.1977 48.3632 48.5503 48.4272 48.8451C48.4912 49.1399 48.536 49.3322 48.5872 49.5757C48.6384 49.8193 48.7216 50.1525 48.792 50.441C48.8625 50.7294 48.9201 50.9281 48.9841 51.1652L49.2145 52.0112L49.4449 52.7355C49.5281 53.0111 49.6113 53.2866 49.7073 53.5558C49.8034 53.825 49.8738 54.0429 49.9634 54.2801L50.2514 55.0812L50.5394 55.7991L50.8595 56.581C50.9619 56.8181 51.0707 57.0488 51.1731 57.286C51.2755 57.5231 51.4035 57.7987 51.5251 58.0487C51.6468 58.2986 51.7492 58.5166 51.8708 58.7473C51.9924 58.978 52.114 59.2408 52.242 59.4843L52.6133 60.1765C52.7477 60.4137 52.8821 60.6572 53.0229 60.8944C53.1637 61.1315 53.2853 61.343 53.4197 61.5353C53.5542 61.7276 53.7014 62.0096 53.8486 62.2403L54.271 62.8812L54.7319 63.5606C54.8791 63.7785 55.0263 63.99 55.1799 64.2015C55.3335 64.413 55.5 64.6502 55.6664 64.8424C55.8328 65.0347 55.98 65.259 56.14 65.4834C56.3 65.7077 56.4793 65.9192 56.6521 66.1243C56.8249 66.3294 56.9785 66.5281 57.1449 66.7267L57.6826 67.3677L58.201 67.9509C58.3867 68.156 58.5723 68.3547 58.7643 68.5534L59.302 69.1174L59.8908 69.7006L60.4541 70.2454L61.0621 70.803L61.6446 71.3221L62.2847 71.8605L62.9247 72.354C63.136 72.5335 63.36 72.7001 63.5648 72.8667L64.2049 73.341L64.8834 73.8281L65.5234 74.2768L66.2339 74.7446C66.4515 74.8856 66.6627 75.0266 66.874 75.1612L67.6036 75.6035L68.2437 75.9944C68.4933 76.1354 68.7494 76.27 69.0054 76.4046C69.2614 76.5392 69.4534 76.6546 69.6839 76.7699C69.9143 76.8853 70.2087 77.0327 70.4711 77.1609L71.1496 77.4942L71.9753 77.8531L72.6602 78.1543C72.9482 78.2761 73.2362 78.3851 73.5243 78.494L74.1643 78.7568C74.478 78.8722 74.8044 78.9747 75.1052 79.0837L75.7453 79.3016H75.7965C74.5925 81.4989 73.1031 83.5269 71.3672 85.3326L68.4037 88.0053C66.9385 89.1516 65.365 90.1519 63.7056 90.992L63.2832 91.2804ZM50.2386 38.8083C50.2386 38.6352 50.2386 38.4558 50.2706 38.2827C50.3026 38.1097 50.2706 37.8725 50.3154 37.6418H51.0387C58.5139 37.6503 65.6804 40.6275 70.9662 45.9203C76.252 51.2131 79.2252 58.3892 79.2337 65.8743C79.2337 66.3742 79.2337 66.8741 79.1953 67.3677L79.1569 67.8548C79.1569 68.188 79.1121 68.4957 79.0737 68.8482C79.0737 69.0405 79.0289 69.2327 79.0033 69.4314C78.9648 69.7262 78.9264 70.0211 78.8816 70.3095C78.8368 70.5979 78.8112 70.7197 78.7728 70.9504C78.7344 71.1811 78.6704 71.508 78.6128 71.79C78.5552 72.072 78.5168 72.2066 78.472 72.4309C78.4272 72.6552 78.3376 72.9693 78.2672 73.2385C78.1968 73.5077 78.152 73.6551 78.088 73.8794C78.0239 74.1037 77.9343 74.405 77.8447 74.6677C77.7551 74.9305 77.7103 75.0843 77.6335 75.3087C77.5567 75.533 77.4479 75.8278 77.3519 76.0778L77.1023 76.7187C77.0574 76.834 77.0062 76.9494 76.955 77.0648L76.7246 76.9943L76.0461 76.7699L75.2397 76.4879L74.5996 76.238L73.8187 75.9303L73.1786 75.6483C72.9162 75.5394 72.6666 75.424 72.4106 75.3087L71.7705 75.0074L71.0216 74.6357L70.3815 74.3088L69.6519 73.9114L69.0118 73.5589L68.3077 73.1359C68.1029 73.0142 67.9045 72.886 67.7125 72.7578C67.5204 72.6296 67.2516 72.463 67.0276 72.3091C66.8036 72.1553 66.6371 72.0464 66.4451 71.9118L65.8051 71.4375L65.2418 71.0145L64.6017 70.5146L64.0577 70.0723L63.4176 69.5468L62.8927 69.0789C62.6943 68.8995 62.4895 68.72 62.2975 68.5341L61.7854 68.0534L61.2158 67.4766L60.7229 66.9767C60.5373 66.7844 60.3581 66.5857 60.1789 66.387C59.9996 66.1884 59.8588 66.0409 59.7052 65.8615L59.1803 65.2526L58.7323 64.7142L58.2331 64.0733L57.8042 63.5157C57.6442 63.3042 57.4906 63.0863 57.3306 62.8748L56.9657 62.2083C56.8121 61.9903 56.6649 61.7596 56.5177 61.5673C56.3705 61.3751 56.2552 61.1828 56.1336 60.9841L55.7112 60.2919C55.5704 60.0612 55.468 59.8945 55.3527 59.6894C55.2375 59.4843 55.0839 59.2216 54.9559 58.9844C54.8279 58.7473 54.7319 58.5742 54.6231 58.3435C54.5143 58.1128 54.3734 57.8628 54.2518 57.6193C54.1302 57.3757 54.0406 57.2027 53.9382 56.9783C53.8358 56.754 53.7142 56.4848 53.599 56.2413L53.3109 55.6004L53.0037 54.8441C52.9141 54.6262 52.8245 54.4147 52.7413 54.2032C52.6581 53.9917 52.5556 53.6904 52.4596 53.4341C52.3636 53.1777 52.2996 52.9982 52.2228 52.7931L51.9732 52.0112L51.762 51.3383C51.6852 51.0755 51.6147 50.8063 51.5443 50.5371C51.4739 50.2679 51.4163 50.0885 51.3587 49.8962C51.3011 49.7039 51.2307 49.3514 51.1731 49.0758C51.1155 48.8002 51.0643 48.6272 51.0195 48.3964C50.9747 48.1657 50.9107 47.8324 50.8595 47.5504C50.8083 47.2684 50.7699 47.1082 50.7315 46.9095C50.6931 46.7108 50.6482 46.3263 50.6034 46.0314C50.5586 45.7366 50.5394 45.5956 50.5138 45.3905C50.4882 45.1854 50.4434 44.7496 50.4114 44.4612C50.4114 44.2561 50.3666 44.051 50.3474 43.8203C50.3474 43.4742 50.3026 43.1281 50.2834 42.782C50.2834 42.6089 50.2834 42.4359 50.2514 42.2628V40.6862C50.2514 40.1606 50.2066 39.4171 50.2386 38.8083V38.8083ZM78.44 80.122C81.6379 80.9132 84.9198 81.3135 88.2138 81.3141C91.8185 81.3147 95.4071 80.8319 98.8838 79.8784H98.9286C99.301 80.9817 99.7612 82.0533 100.305 83.083L88.329 96.5423L76.4302 83.4291C77.1676 82.3693 77.8388 81.2648 78.44 80.122V80.122ZM100.785 76.5456C100.676 75.9816 100.593 75.4176 100.542 74.86C100.49 74.3024 100.458 73.7128 100.458 73.168C100.467 68.2967 102.404 63.6275 105.845 60.1841C109.286 56.7408 113.951 54.8043 118.815 54.7992C119.232 54.7992 119.654 54.7992 120.096 54.8441L120.499 54.8825C120.78 54.8825 121.069 54.9402 121.35 54.9787L121.811 55.0492L122.605 55.1966L123.059 55.2991L123.296 55.3568C123.296 55.4017 123.264 55.4401 123.245 55.4786C123.226 55.517 123.142 55.7221 123.091 55.8375C122.942 56.1836 122.788 56.5233 122.63 56.8566C122.56 57.0104 122.483 57.1642 122.413 57.3116C122.259 57.6321 122.099 57.9525 121.933 58.2538L121.715 58.6704C121.485 59.1062 121.241 59.5356 120.992 59.9522C120.742 60.3688 120.409 60.9136 120.102 61.3815L119.788 61.8365C119.577 62.1506 119.372 62.4774 119.148 62.7723C119.027 62.9453 118.899 63.1055 118.777 63.2722C118.566 63.5542 118.361 63.8362 118.137 64.1118C117.913 64.3874 117.843 64.4707 117.695 64.6502C117.548 64.8296 117.286 65.1565 117.055 65.4064C116.825 65.6564 116.729 65.7718 116.569 65.9512L115.929 66.6498C115.756 66.8357 115.577 67.0087 115.398 67.1882C115.218 67.3677 114.975 67.6304 114.757 67.8291L114.188 68.3611C113.977 68.5662 113.765 68.7713 113.548 68.9635L112.946 69.4891C112.728 69.675 112.511 69.8672 112.306 70.0467L111.666 70.553C111.442 70.7261 111.224 70.9055 110.994 71.0786L110.354 71.5593L109.675 72.0464L108.965 72.5078C108.741 72.6552 108.51 72.8091 108.28 72.9501C108.05 73.0911 107.787 73.2449 107.537 73.3923L106.846 73.8025C106.597 73.9435 106.341 74.0717 106.085 74.2063L105.374 74.5844C105.112 74.719 104.849 74.8408 104.587 74.9626C104.324 75.0843 104.107 75.1997 103.863 75.3087C103.62 75.4176 103.319 75.5394 103.051 75.6547C102.782 75.7701 102.571 75.8662 102.321 75.9624L101.482 76.2764L100.785 76.5456ZM118.815 91.4855C114.457 91.484 110.242 89.9249 106.929 87.0888L106.078 86.3197C103.985 84.3057 102.403 81.8205 101.463 79.0708C110.594 75.9137 118.307 69.6101 123.226 61.2853C123.494 60.8239 123.757 60.356 124.006 59.8881L124.243 59.4331C124.416 59.0998 124.589 58.7921 124.749 58.4332L124.999 57.9141C125.152 57.5808 125.306 57.2732 125.453 56.9143L125.671 56.4143C125.671 56.331 125.741 56.2541 125.773 56.1708C128.925 57.4582 131.657 59.5999 133.662 62.3554C135.666 65.111 136.864 68.3714 137.121 71.7708V72.0015C137.121 72.3796 137.166 72.7642 137.166 73.1488C137.149 78.0134 135.209 82.6734 131.77 86.1096C128.332 89.5459 123.674 91.4787 118.815 91.4855ZM88.2138 2.52581C94.2571 2.52473 100.214 3.96589 105.59 6.72986C110.966 9.49382 115.606 13.501 119.127 18.4192C122.648 23.3374 124.947 29.0251 125.835 35.0107C126.722 40.9964 126.172 47.1076 124.23 52.838C121.123 51.9988 117.864 51.8881 114.707 52.5144C111.55 53.1406 108.58 54.4871 106.026 56.4492C103.473 58.4113 101.406 60.9362 99.9851 63.8279C98.5643 66.7197 97.8283 69.9004 97.8341 73.1231V73.1808C97.8341 73.8217 97.8661 74.4626 97.9301 75.1676C97.9301 75.4881 98.0005 75.8086 98.0453 76.1483C98.0453 76.2508 98.0453 76.3598 98.0965 76.4623C98.1349 76.693 98.1733 76.9238 98.2181 77.1481C98.2181 77.2122 98.2181 77.2699 98.2501 77.334C92.15 78.9979 85.7333 79.1235 79.5729 77.6993C81.5236 73.011 82.288 67.913 81.7983 62.8578C81.3087 57.8026 79.58 52.9467 76.7659 48.7212C73.9518 44.4957 70.1393 41.0313 65.6669 38.6357C61.1944 36.24 56.2004 34.9872 51.1283 34.9884H50.6034C51.9283 25.954 56.4594 17.7001 63.3666 11.7383C70.2738 5.77646 79.0948 2.50596 88.2138 2.52581V2.52581ZM92.5727 108.419V129.377H84.1174V108.412L68.5381 91.2676C70.8367 89.6912 72.9122 87.8112 74.7084 85.6787L88.329 100.458L101.815 85.4544C103.466 87.7271 105.556 89.645 107.96 91.0945L92.5727 108.419Z" fill="white"/>
<path d="M2.8675 143.259L7.43759 151.591L12.0525 143.259H14.92L8.74333 153.905V159.833H6.13185V153.853L0 143.259H2.8675ZM40.5163 159.833V147.886L35.6006 156.917H34.154L29.2127 147.886V159.814H26.6012V143.259H29.3983L34.8773 153.392L40.3563 143.259H43.1534V159.833H40.5163ZM60.5632 157.5V159.814H49.2148V143.259H60.3584V145.566H51.8455V150.283H59.2127V152.456H51.8455V157.5H60.5632ZM70.4715 143.259H72.7565L79.2852 159.833H76.5329L74.7855 155.347H68.3848L66.6631 159.833H63.898L70.4715 143.259ZM74.2479 153.392L71.5916 146.271L68.8393 153.392H74.2479ZM83.6697 159.833V143.259H89.5455C90.7462 143.23 91.94 143.448 93.0531 143.9C94.0098 144.303 94.868 144.908 95.5685 145.675C96.2529 146.434 96.7737 147.327 97.0983 148.297C97.4426 149.33 97.6155 150.412 97.6103 151.501C97.6257 152.667 97.4328 153.826 97.0407 154.924C96.6862 155.899 96.1324 156.79 95.4149 157.539C94.6929 158.277 93.8194 158.85 92.8546 159.218C91.7934 159.627 90.6636 159.83 89.5263 159.814L83.6697 159.833ZM94.9541 151.501C94.9627 150.686 94.8395 149.874 94.5892 149.098C94.3691 148.405 94.0073 147.765 93.5267 147.22C93.0561 146.694 92.4774 146.277 91.8305 145.996C91.1083 145.689 90.33 145.536 89.5455 145.547H86.2811V157.5H89.5455C90.3415 157.517 91.1318 157.362 91.8625 157.045C92.5189 156.751 93.1008 156.313 93.5651 155.763C94.0387 155.2 94.3916 154.546 94.602 153.841C94.8344 153.089 94.9531 152.307 94.9541 151.52V151.501ZM109.567 159.949C108.46 159.959 107.365 159.716 106.366 159.237C105.412 158.768 104.559 158.115 103.857 157.314C103.157 156.522 102.609 155.607 102.238 154.616C101.863 153.625 101.67 152.574 101.668 151.514C101.659 150.416 101.866 149.327 102.276 148.309C102.664 147.323 103.228 146.415 103.941 145.63C104.648 144.85 105.503 144.219 106.456 143.772C107.459 143.308 108.552 143.074 109.656 143.086C110.766 143.076 111.861 143.326 112.857 143.817C113.806 144.289 114.654 144.942 115.353 145.739C116.044 146.536 116.588 147.45 116.96 148.438C117.736 150.446 117.736 152.672 116.96 154.68C116.198 156.672 114.696 158.292 112.767 159.199C111.77 159.686 110.676 159.942 109.567 159.949ZM104.331 151.546C104.332 152.315 104.457 153.079 104.702 153.808C104.937 154.509 105.297 155.16 105.765 155.731C106.222 156.292 106.791 156.75 107.435 157.077C108.114 157.417 108.865 157.589 109.624 157.577C110.399 157.593 111.166 157.413 111.852 157.052C112.487 156.708 113.045 156.237 113.49 155.667C113.943 155.091 114.292 154.441 114.521 153.744C114.75 153.036 114.867 152.297 114.867 151.552C114.871 150.779 114.745 150.009 114.495 149.277C114.262 148.576 113.902 147.924 113.433 147.354C112.976 146.805 112.415 146.352 111.781 146.021C111.097 145.684 110.345 145.509 109.583 145.509C108.82 145.509 108.068 145.684 107.384 146.021C106.748 146.36 106.186 146.825 105.733 147.386C105.273 147.959 104.922 148.61 104.696 149.309C104.451 150.029 104.328 150.785 104.331 151.546ZM127.822 143.329H130.292L132.321 148.957L134.376 143.329H136.821L133.998 150.706L136.469 156.795L141.589 143.259H144.457L137.627 159.833H135.387L132.315 152.411L129.21 159.833H126.977L120.141 143.259H122.989L128.161 156.795L130.631 150.706L127.822 143.329ZM158.174 147.156C157.974 146.946 157.748 146.763 157.501 146.611C157.172 146.399 156.825 146.215 156.465 146.06C156.052 145.88 155.623 145.739 155.184 145.637C154.706 145.529 154.216 145.475 153.725 145.477C152.868 145.409 152.012 145.622 151.286 146.085C151.031 146.282 150.827 146.537 150.691 146.829C150.555 147.122 150.491 147.442 150.506 147.765C150.491 148.113 150.578 148.458 150.755 148.758C150.95 149.031 151.209 149.252 151.51 149.399C151.915 149.621 152.345 149.794 152.791 149.912C153.303 150.059 153.904 150.219 154.589 150.392C155.344 150.584 156.088 150.817 156.817 151.091C157.43 151.308 158.008 151.614 158.532 152.001C158.988 152.351 159.358 152.8 159.614 153.315C159.888 153.918 160.019 154.576 159.998 155.238C160.017 155.99 159.853 156.736 159.518 157.41C159.222 158.004 158.782 158.513 158.238 158.891C157.656 159.29 157.005 159.575 156.317 159.731C155.546 159.915 154.755 160.005 153.962 160C152.723 160.005 151.492 159.813 150.314 159.429C149.158 159.065 148.075 158.501 147.113 157.763L148.304 155.52C148.57 155.776 148.862 156.003 149.174 156.199C149.597 156.467 150.042 156.697 150.506 156.885C151.039 157.106 151.589 157.286 152.151 157.423C152.752 157.571 153.369 157.644 153.988 157.641C154.815 157.691 155.64 157.507 156.369 157.109C156.637 156.943 156.856 156.708 157.004 156.429C157.151 156.149 157.221 155.835 157.207 155.52C157.222 155.144 157.112 154.774 156.893 154.469C156.65 154.162 156.345 153.911 155.997 153.732C155.54 153.498 155.062 153.307 154.57 153.161C153.934 152.969 153.293 152.789 152.65 152.623C151.918 152.437 151.198 152.208 150.493 151.937C149.938 151.731 149.421 151.434 148.963 151.059C148.571 150.732 148.257 150.323 148.041 149.86C147.821 149.331 147.714 148.761 147.728 148.188C147.714 147.441 147.874 146.702 148.195 146.028C148.5 145.412 148.937 144.871 149.475 144.445C150.045 143.998 150.698 143.669 151.395 143.477C152.169 143.253 152.971 143.143 153.776 143.15C154.832 143.14 155.882 143.32 156.874 143.682C157.763 144.011 158.602 144.46 159.37 145.015L158.174 147.156Z" fill="white"/>
</svg>
